<?xml version="1.0" standalone="no"?>
<!DOCTYPE svg PUBLIC "-//W3C//DTD SVG 1.1//EN" "http://www.w3.org/Graphics/SVG/1.1/DTD/svg11.dtd" >
<svg xmlns="http://www.w3.org/2000/svg">
<metadata>Generated by IcoMoon</metadata>
<defs>
<font id="icomoon" horiz-adv-x="512">
<font-face units-per-em="512" ascent="480" descent="-32" />
<missing-glyph horiz-adv-x="512" />
<glyph unicode="&#x20;" horiz-adv-x="256" d="" />
<glyph unicode="&#xe605;" glyph-name="Add-File" d="M277.334-32h-213.333c-4.71 0-8.534 3.84-8.534 8.534v375.842c0 2.185 0.837 4.284 2.338 5.871l112.879 119.091c1.605 1.707 3.857 2.663 6.195 2.663h262.587c4.693 0 8.534-3.823 8.534-8.534v-315.733c0-4.694-3.84-8.534-8.534-8.534s-8.534 3.84-8.534 8.534v307.2h-250.385l-108.015-113.954v-363.913h204.8c4.694 0 8.534-3.84 8.534-8.534s-3.84-8.533-8.534-8.533zM183.466 343.466h-110.933c-4.71 0-8.534 3.823-8.534 8.534s3.823 8.534 8.534 8.534h102.4v102.4c0 4.711 3.823 8.534 8.534 8.534s8.534-3.823 8.534-8.534v-110.933c0-4.711-3.823-8.534-8.534-8.534zM388.267-23.466c-4.694 0-8.534 3.84-8.534 8.534v119.466c0 4.693 3.84 8.534 8.534 8.534s8.534-3.84 8.534-8.534v-119.466c0-4.693-3.84-8.534-8.534-8.534zM448 36.267h-119.466c-4.693 0-8.534 3.84-8.534 8.534s3.84 8.534 8.534 8.534h119.466c4.693 0 8.534-3.84 8.534-8.534s-3.84-8.534-8.534-8.534z" />
<glyph unicode="&#xe614;" glyph-name="Air-Balloon" d="M307.2-37.342h-102.4c-4.71 0-8.534 3.84-8.534 8.534v68.267c0 4.676 3.823 8.534 8.534 8.534h102.4c4.694 0 8.534-3.857 8.534-8.534v-68.267c0-4.693-3.84-8.534-8.534-8.534zM213.333-20.275h85.333v51.2h-85.334v-51.2zM330.666 201.591h-149.333c-69.359 0-104.534 35.191-104.534 104.534 0 98.816 80.384 179.2 179.2 179.2 98.799 0 179.2-80.384 179.2-179.2 0-93.696-59.665-104.534-104.534-104.534zM256 468.258c-89.395 0-162.133-72.738-162.133-162.133 0-78.404 49.92-87.466 87.466-87.466h149.333c43.23 0 87.466 10.393 87.466 87.466 0 89.413-72.738 162.134-162.133 162.134zM362.666 276.258c-16.469 0-29.866 13.397-29.866 29.866 0 7.065-5.735 12.8-12.8 12.8s-12.8-5.718-12.8-12.8c0-16.47-13.397-29.866-29.866-29.866s-29.867 13.397-29.867 29.866c0 7.065-5.734 12.8-12.8 12.8s-12.8-5.734-12.8-12.8c0-16.47-13.398-29.866-29.867-29.866s-29.867 13.397-29.867 29.866c0 7.065-5.734 12.8-12.8 12.8s-12.8-5.718-12.8-12.8c0-16.47-13.398-29.866-29.867-29.866s-29.867 13.397-29.867 29.866h17.067c0-7.065 5.734-12.8 12.8-12.8s12.8 5.734 12.8 12.8c0 16.47 13.397 29.866 29.866 29.866s29.867-13.397 29.867-29.866c0-7.065 5.734-12.8 12.8-12.8s12.8 5.734 12.8 12.8c0 16.47 13.398 29.866 29.867 29.866s29.866-13.397 29.866-29.866c0-7.065 5.735-12.8 12.8-12.8s12.8 5.734 12.8 12.8c0 16.47 13.397 29.866 29.866 29.866s29.866-13.397 29.866-29.866c0-7.065 5.735-12.8 12.8-12.8s12.8 5.734 12.8 12.8c0 16.47 13.397 29.866 29.866 29.866s29.866-13.397 29.866-29.866h-17.067c0 7.065-5.735 12.8-12.8 12.8s-12.8-5.718-12.8-12.8c0-16.435-13.397-29.866-29.866-29.866zM111.419 245.401l103.893-198.554-15.121-7.911-103.894 198.554 15.121 7.911zM400.418 244.506l15.283-7.603-99.917-200.909-15.283 7.603 99.917 200.909zM216.781 215.987l23.339-170.666-16.913-2.313-23.339 170.667 16.913 2.313zM287.514 216.678l16.887-2.313-23.39-170.649-16.887 2.313 23.39 170.649z" />
<glyph unicode="&#xe681;" glyph-name="Bacteria" d="M255.983-29.849c-4.727 0-9.404 0.188-14.029 0.563-4.677 0.375-8.175 4.488-7.816 9.182 0.375 4.694 4.352 8.26 9.199 7.817 10.838-0.87 22.050-0.615 32.854 0.785 4.676 0.666 8.943-2.68 9.575-7.373 0.615-4.659-2.68-8.943-7.356-9.575-7.39-0.921-14.916-1.399-22.425-1.399zM208.64-22.853c-0.837 0-1.69 0.12-2.492 0.375-11.639 3.533-22.921 8.397-33.536 14.37-4.113 2.321-5.564 7.51-3.243 11.639 2.321 4.096 7.51 5.546 11.639 3.226 9.541-5.359 19.661-9.711 30.139-12.937 4.506-1.365 7.048-6.127 5.666-10.632-1.161-3.67-4.54-6.041-8.175-6.041zM310.938-20.293c-3.498 0-6.759 2.168-8.022 5.632-1.604 4.438 0.7 9.336 5.137 10.94 10.291 3.704 20.207 8.55 29.474 14.404 3.976 2.526 9.267 1.331 11.759-2.628 2.509-3.959 1.331-9.25-2.646-11.759-10.308-6.536-21.334-11.93-32.785-16.043-0.973-0.426-1.962-0.546-2.918-0.546zM148.617 10.974c-2.031 0-4.062 0.734-5.683 2.168-9.063 8.123-17.288 17.203-24.439 27.067-2.782 3.806-1.928 9.13 1.877 11.93 3.823 2.765 9.165 1.894 11.896-1.894 6.434-8.875 13.858-17.067 22.016-24.354 3.516-3.158 3.823-8.534 0.666-12.049-1.655-1.911-3.959-2.867-6.332-2.867zM369.186 16.452c-2.202 0-4.403 0.853-6.058 2.543-3.311 3.345-3.277 8.755 0.086 12.066 7.783 7.663 14.779 16.231 20.787 25.395 2.577 3.925 7.868 5.051 11.81 2.474 3.925-2.56 5.051-7.868 2.474-11.793-6.673-10.206-14.438-19.661-23.091-28.194-1.673-1.673-3.84-2.491-6.007-2.491zM108.135 66.714c-3.26 0-6.4 1.911-7.817 5.086-4.898 11.127-8.635 22.801-11.094 34.714-0.956 4.625 2.014 9.13 6.622 10.087 4.591 0.973 9.13-1.997 10.087-6.639 2.219-10.735 5.598-21.265 10.001-31.3 1.894-4.301-0.051-9.336-4.369-11.23-1.093-0.495-2.287-0.717-3.43-0.717zM406.904 74.103c-1.024 0-2.048 0.205-3.055 0.563-4.403 1.707-6.605 6.639-4.915 11.025 3.925 10.206 6.776 20.889 8.482 31.71 0.734 4.642 5.12 7.851 9.762 7.099 4.642-0.734 7.834-5.103 7.117-9.745-1.894-12.032-5.051-23.842-9.404-35.209-1.331-3.362-4.574-5.445-7.987-5.445zM94.123 134.161c-0.017 0-0.034 0-0.051 0-4.71 0.034-8.516 3.891-8.482 8.567 0.069 12.561 2.645 24.644 7.953 36.966 1.826 4.335 6.861 6.332 11.213 4.471 4.335-1.861 6.332-6.861 4.472-11.213-4.352-10.189-6.502-20.070-6.57-30.31-0.017-4.676-3.857-8.482-8.534-8.482zM417.877 142.2c-4.711 0-8.534 3.84-8.534 8.534v34.782c0 4.711 3.823 8.534 8.534 8.534 4.694 0 8.534-3.823 8.534-8.534v-34.782c0-4.694-3.823-8.534-8.534-8.534zM119.126 197.495c-1.775 0-3.55 0.563-5.103 1.707-3.772 2.816-4.557 8.175-1.741 11.947 6.656 8.943 14.063 17.664 22.374 27.323 3.106 3.584 8.482 3.959 12.032 0.922 3.567-3.072 3.976-8.465 0.939-12.032-8.107-9.421-15.291-17.903-21.657-26.402-1.672-2.253-4.233-3.464-6.844-3.464zM417.877 211.729c-4.711 0-8.534 3.823-8.534 8.534v34.765c0 4.71 3.823 8.534 8.534 8.534 4.694 0 8.534-3.823 8.534-8.534v-34.765c0-4.711-3.823-8.534-8.534-8.534zM163.345 251.050c-1.826 0-3.686 0.597-5.239 1.809-3.738 2.901-4.386 8.261-1.468 11.963 7.68 9.865 13.858 18.893 18.825 27.648 2.321 4.096 7.51 5.529 11.639 3.208 4.096-2.338 5.53-7.526 3.208-11.639-5.376-9.472-11.981-19.2-20.224-29.713-1.69-2.15-4.181-3.277-6.742-3.277zM417.877 281.241c-4.711 0-8.534 3.823-8.534 8.534v34.765c0 4.71 3.823 8.534 8.534 8.534 4.694 0 8.534-3.823 8.534-8.534v-34.765c0-4.71-3.823-8.534-8.534-8.534zM196.625 311.466c-0.819 0-1.655 0.12-2.475 0.358-4.506 1.365-7.066 6.11-5.718 10.632 3.157 10.428 4.898 20.889 5.359 31.983 0.188 4.71 4.147 8.209 8.892 8.175 4.71-0.205 8.363-4.182 8.175-8.892-0.512-12.373-2.56-24.542-6.059-36.181-1.109-3.687-4.506-6.076-8.175-6.076zM417.877 351.266c-4.711 0-8.534 3.328-8.534 8.056v0.99c0 10.803-1.639 21.419-4.881 31.574-1.416 4.505 1.075 9.301 5.546 10.718 4.539 1.417 9.284-1.041 10.718-5.546 3.772-11.81 5.683-24.183 5.683-36.744 0-4.728-3.823-9.046-8.534-9.046zM206.097 379.938c-0.717 0-1.451 0.086-2.167 0.29-4.557 1.195-7.287 5.854-6.076 10.411 3.191 12.101 8.226 23.586 15.053 34.099 2.543 3.942 7.833 5.086 11.776 2.526 3.959-2.56 5.103-7.851 2.509-11.81-5.82-8.977-10.155-18.791-12.851-29.133-1.007-3.84-4.471-6.383-8.243-6.383zM397.039 416.785c-2.646 0-5.274 1.229-6.912 3.55-6.298 8.67-13.875 16.214-22.562 22.409-3.84 2.731-4.728 8.072-1.997 11.896 2.748 3.84 8.089 4.71 11.913 1.979 10.189-7.27 19.081-16.111 26.454-26.299 2.765-3.823 1.911-9.148-1.877-11.913-1.553-1.092-3.294-1.621-5.017-1.621zM243.2 437.197c-2.492 0-4.983 1.092-6.673 3.192-2.97 3.669-2.373 9.046 1.297 11.998 9.797 7.868 20.736 14.046 32.478 18.363 4.403 1.639 9.319-0.649 10.974-5.052 1.622-4.42-0.649-9.318-5.086-10.957-10.018-3.686-19.337-8.943-27.682-15.65-1.519-1.28-3.43-1.894-5.308-1.894zM341.487 456.329c-0.802 0-1.639 0.119-2.457 0.358-9.13 2.731-18.688 4.113-28.416 4.113l-3.14-0.051c-4.676-0.256-8.653 3.533-8.807 8.243s3.533 8.653 8.226 8.806l3.721 0.051c11.384 0 22.562-1.621 33.297-4.83 4.522-1.349 7.082-6.093 5.717-10.615-1.075-3.669-4.454-6.075-8.141-6.075zM259.277 12.817c-71.356 0-129.399 58.043-129.399 129.433 0 22.545 15.496 42.291 39.117 69.769 30.276 35.277 68.011 79.19 68.011 148.275 0 40.602 35.294 74.923 77.107 74.923 42.018 0 76.202-33.604 76.202-74.923v-218.043c0.017-70.144-60.007-129.433-131.038-129.433zM314.129 418.151c-31.983 0-60.058-27.034-60.058-57.856 0-75.417-41.677-123.955-72.124-159.385-24.201-28.16-35.004-43.332-35.004-58.658 0-61.952 50.381-112.367 112.333-112.367 61.781 0 113.988 51.456 113.988 112.367v218.043c0 31.898-26.538 57.856-59.136 57.856zM257.877 76.817c-28.228 0-51.2 22.989-51.2 51.2s22.971 51.2 51.2 51.2 51.2-22.989 51.2-51.2-22.954-51.2-51.2-51.2zM257.877 162.151c-18.841 0-34.133-15.309-34.133-34.133s15.292-34.134 34.133-34.134c18.825 0 34.133 15.309 34.133 34.134s-15.309 34.134-34.134 34.134z" />
<glyph unicode="&#xe6a9;" glyph-name="Beer-Glass" d="M352-32h-277.334c-22.358 0-40.533 18.159-40.533 40.534v430.933c0 22.358 18.176 40.534 40.533 40.534h277.334c22.375 0 40.534-18.176 40.534-40.534v-430.933c0-22.375-18.159-40.534-40.534-40.534zM74.666 462.933c-12.937 0-23.466-10.53-23.466-23.466v-430.933c0-12.937 10.53-23.466 23.466-23.466h277.334c12.937 0 23.466 10.53 23.466 23.466v430.933c0 12.937-10.53 23.466-23.466 23.466h-277.334zM412.245 104.534h-28.245c-4.693 0-8.534 3.84-8.534 8.534v256c0 4.711 3.84 8.534 8.534 8.534h28.245c31.693 0 65.621-21.435 65.621-53.334v-163.55c0-33.11-34.56-56.183-65.621-56.183zM392.534 121.6h19.712c22.442 0 48.555 17.084 48.555 39.117v163.55c0 21.385-25.583 36.267-48.555 36.267h-19.712v-238.934zM110.933 44.8c-4.71 0-8.534 3.84-8.534 8.534v307.2c0 4.711 3.823 8.534 8.534 8.534s8.534-3.823 8.534-8.534v-307.2c0-4.694-3.823-8.534-8.534-8.534zM375.466 360.534h-324.267c-4.71 0-8.534 3.823-8.534 8.534s3.823 8.534 8.534 8.534h324.267c4.693 0 8.534-3.823 8.534-8.534s-3.84-8.534-8.534-8.534zM179.2 44.8c-4.71 0-8.534 3.84-8.534 8.534v307.2c0 4.711 3.823 8.534 8.534 8.534s8.534-3.823 8.534-8.534v-307.2c0-4.694-3.823-8.534-8.534-8.534zM247.466 44.8c-4.71 0-8.534 3.84-8.534 8.534v307.2c0 4.711 3.823 8.534 8.534 8.534s8.534-3.823 8.534-8.534v-307.2c0-4.694-3.823-8.534-8.534-8.534zM315.733 44.8c-4.694 0-8.534 3.84-8.534 8.534v307.2c0 4.711 3.84 8.534 8.534 8.534s8.534-3.823 8.534-8.534v-307.2c0-4.694-3.84-8.534-8.534-8.534z" />
<glyph unicode="&#xe6b5;" glyph-name="Bicycle" d="M106.666 53.334c-57.634 0-104.534 46.899-104.534 104.534 0 57.617 46.899 104.534 104.534 104.534s104.533-46.899 104.533-104.534c0-57.634-46.899-104.534-104.534-104.534zM106.666 245.333c-48.23 0-87.466-39.219-87.466-87.467s39.236-87.466 87.466-87.466c48.23 0 87.466 39.236 87.466 87.466s-39.237 87.466-87.466 87.466zM405.334 53.334c-57.634 0-104.534 46.899-104.534 104.534 0 57.617 46.899 104.534 104.534 104.534s104.534-46.899 104.534-104.534c0-57.634-46.899-104.534-104.534-104.534zM405.334 245.333c-48.231 0-87.466-39.219-87.466-87.467s39.236-87.466 87.466-87.466 87.466 39.236 87.466 87.466-39.236 87.466-87.466 87.466zM256 155.733h-149.333c-2.885 0-5.581 1.467-7.151 3.891-1.57 2.457-1.809 5.478-0.632 8.123l68.454 153.6c1.331 2.987 4.25 4.95 7.51 5.052 3.208 0.12 6.315-1.673 7.816-4.557l80.879-153.6c1.399-2.628 1.297-5.82-0.239-8.38-1.553-2.56-4.318-4.13-7.305-4.13zM119.808 172.8h122.061l-66.099 125.508-55.962-125.508zM337.255 309.333h-162.133c-4.71 0-8.534 3.823-8.534 8.534s3.823 8.534 8.534 8.534h162.133c4.711 0 8.534-3.823 8.534-8.534s-3.823-8.534-8.534-8.534zM401.152 153.6c-3.498 0-6.759 2.168-8.022 5.632l-81.169 224c-0.938 2.611-0.546 5.529 1.058 7.817 1.587 2.27 4.199 3.618 6.981 3.618h34.321c4.711 0 8.534-3.823 8.534-8.534s-3.823-8.534-8.534-8.534h-22.152l77.022-212.548c1.604-4.438-0.683-9.336-5.12-10.957-0.973-0.325-1.945-0.495-2.918-0.495zM255.983 155.733c-1.399 0-2.833 0.358-4.13 1.075-4.13 2.287-5.615 7.475-3.311 11.606l85.333 153.6c2.304 4.113 7.493 5.598 11.606 3.311 4.13-2.304 5.632-7.493 3.311-11.623l-85.334-153.6c-1.57-2.799-4.471-4.369-7.475-4.369zM31.198 265.643c-2.799 0-5.529 1.365-7.151 3.891-2.577 3.942-1.451 9.233 2.491 11.793 39.39 25.617 90.471 30.686 134.093 13.5 4.386-1.741 6.536-6.69 4.813-11.059-1.741-4.386-6.707-6.537-11.042-4.813-38.571 15.207-83.729 10.718-118.545-11.913-1.45-0.938-3.055-1.399-4.659-1.399zM175.121 317.866c-4.71 0-8.534 3.823-8.534 8.534v17.067c0 4.711 3.823 8.534 8.534 8.534s8.534-3.823 8.534-8.534v-17.067c0-4.71-3.823-8.534-8.534-8.534zM217.787 343.466h-68.266c-4.71 0-8.534 3.823-8.534 8.534s3.823 8.534 8.534 8.534h68.267c4.71 0 8.534-3.823 8.534-8.534s-3.823-8.534-8.534-8.534z" />
<glyph unicode="&#xe6f7;" glyph-name="Brush" d="M197.495 117.197c-2.253 0-4.421 0.904-6.042 2.491l-39.782 39.765c-1.963 1.962-2.85 4.728-2.373 7.475 24.423 141.893 288.7 287.591 325.905 287.591 3.43 0 6.178-1.041 8.209-3.072 4.864-4.864 3.021-12.424 0.955-19.115-17.339-55.279-151.143-290.799-285.372-315-0.495-0.103-1.007-0.137-1.502-0.137zM166.946 168.363l33.349-33.365c124.331 27.034 249.686 252.262 267.094 300.442-48.281-17.322-274.398-142.661-300.442-267.077zM34.031-6.502c-4.71 0-8.534 3.823-8.534 8.534 0 42.837 38.758 121.856 62.157 145.238 24.474 24.457 67.123 24.457 91.597 0 25.258-25.276 25.242-66.389 0-91.631-23.381-23.347-102.383-62.139-145.22-62.139zM133.445 149.163c-12.749 0-24.73-4.966-33.741-13.961-18.944-18.927-51.695-84.463-56.542-124.041 39.578 4.83 105.079 37.598 124.007 56.542 18.619 18.603 18.619 48.879 0.017 67.481-9.029 9.011-20.992 13.978-33.741 13.978zM280.089 165.786l-84.454 84.429 12.066 12.066 84.454-84.429-12.066-12.066z" />
<glyph unicode="&#xe6ff;" glyph-name="Business-ManWoman" horiz-adv-x="666" d="M657.067-28.262c-4.693 0-8.534 3.84-8.534 8.534v23.466c0 54.341-80.197 74.599-130.731 74.599-2.594 0-5.086 1.195-6.707 3.26l-48.572 61.798c-2.935 3.704-2.304 9.029 1.433 11.964 3.704 2.935 9.046 2.27 11.964-1.433l46.012-58.59c59.323-1.075 143.633-25.959 143.633-91.614v-23.466c0.034-4.693-3.806-8.517-8.499-8.517zM234.53 123.204c-63.488 0-115.115 68.796-119.159 129.007-14.131 3.208-30.020 13.961-30.020 28.86v42.666c0 14.063 20.566 23.176 34.133 27.648v36.352c0 40.721 28.45 71.577 66.475 72.517 7.749 3.208 40.704 16.025 74.325 16.025 52.275 0 81.067-31.454 81.067-88.542v-34.969c17.067-3.772 17.067-19.269 17.067-29.031v-42.666c0-18.688-7.611-25.941-15.19-28.536-3.175-62.601-46.916-129.331-108.697-129.331zM260.267 459.213c-34.082 0-68.745-15.138-69.086-15.275-1.075-0.495-2.253-0.734-3.447-0.734-29.662 0-51.2-23.33-51.2-55.466v-42.666c0-3.823-2.543-7.185-6.23-8.209-12.834-3.601-26.453-10.309-28.007-13.79l0.103-42.001c0-5.256 12.493-12.8 21.231-12.8 4.694 0 8.534-3.823 8.534-8.534 0-53.76 47.24-119.466 102.366-119.466 52.548 0 91.801 63.062 91.801 119.466 0 4.71 3.823 8.534 8.534 8.534 2.56 0 6.469 0 6.469 12.8v42.666c0 12.441-0.239 12.8-8.534 12.8-4.711 0-8.534 3.823-8.534 8.534v42.666c0 48.094-20.941 71.475-64 71.475zM452.062 146.432c-26.983 0-50.296 5.462-71.475 11.366-4.539 1.263-7.185 6.007-5.922 10.53 1.28 4.557 6.024 7.168 10.513 5.939 20.002-5.581 41.933-10.752 66.901-10.752 107.025 0 148.361 53.453 160.87 75.606-8.585 14.489-36.25 62.242-41.182 83.132-8.601 36.438-37.479 121.207-119.688 121.207-16.367 0-31.983-3.703-46.404-11.008-4.233-2.116-9.37-0.426-11.503 3.772s-0.409 9.335 3.806 11.469c16.793 8.517 35.021 12.834 54.101 12.834 66.475 0 116.155-48.964 136.294-134.349 4.232-17.971 31.539-65.587 41.643-82.398 1.502-2.509 1.655-5.615 0.324-8.226-10.41-20.924-54.135-89.122-178.279-89.122zM8.534-28.262c-4.71 0-8.534 3.84-8.534 8.534v23.466c0 66.304 60.979 96 121.412 96h27.017l25.993 45.961c2.321 4.13 7.526 5.563 11.623 3.226 4.096-2.355 5.547-7.526 3.226-11.656l-28.45-50.279c-1.502-2.697-4.352-4.352-7.424-4.352h-31.983c-48.128 0-104.346-20.668-104.346-78.933v-23.466c0-4.676-3.823-8.499-8.534-8.499zM469.334-28.262c-4.694 0-8.534 3.84-8.534 8.534v23.466c0 58.266-55.466 78.933-102.981 78.933h-32c-3.038 0-5.837 1.604-7.373 4.233l-31.317 53.572c-2.373 4.045-1.007 9.267 3.055 11.69 4.045 2.423 9.284 1.058 11.69-3.089l28.825-49.322h27.102c59.75 0 120.047-29.679 120.047-96v-23.466c0.017-4.728-3.823-8.55-8.517-8.55zM196.079-4.796c-0.512 0-1.058 0.034-1.553 0.137-2.765 0.495-5.103 2.389-6.246 4.933l-40.534 91.204c-1.502 3.397-0.649 7.39 2.117 9.83 2.765 2.491 6.775 2.867 9.984 1.058l83.2-48.555c2.287-1.314 3.823-3.67 4.165-6.281 0.341-2.594-0.563-5.257-2.441-7.099l-42.666-42.666c-1.605-1.673-3.789-2.56-6.024-2.56zM174.063 74.274l24.763-55.706 26.061 26.043-50.825 29.662zM281.395-4.796c-2.236 0-4.421 0.904-6.041 2.491l-42.666 42.666c-1.929 1.894-2.816 4.625-2.406 7.373 0.41 2.68 2.117 5.017 4.54 6.264l87.109 44.783c3.243 1.69 7.305 1.075 9.916-1.536 2.628-2.611 3.243-6.622 1.587-9.916l-44.442-87.466c-1.246-2.44-3.567-4.13-6.264-4.574-0.443-0.051-0.887-0.086-1.331-0.086zM253.030 44.168l26.078-26.061 27.153 53.435-53.231-27.375z" />
<glyph unicode="&#xe73f;" glyph-name="Checked-User" d="M260.318 113.579c-61.833 0-112.094 68.881-115.985 129.126-13.278 3.601-23.603 15.496-23.603 28.757v42.667c0 12.168 10.718 21.521 17.066 25.993v38.007c0 40.721 28.45 71.577 66.475 72.517 7.749 3.209 40.704 16.025 74.326 16.025 52.275 0 81.067-31.454 81.067-88.542v-34.355c28.45-1.621 34.134-11.912 34.134-29.645v-42.666c0-13.944-8.175-25.088-20.019-28.655-3.618-61.371-51.899-129.229-113.459-129.229zM278.596 449.587c-34.082 0-68.745-15.138-69.086-15.274-1.075-0.495-2.253-0.734-3.447-0.734-29.662 0-51.2-23.33-51.2-55.467v-42.666c0-3.072-1.673-5.922-4.335-7.441-5.342-3.021-12.732-9.541-12.732-13.893v-42.666c0-6.57 7.202-12.8 14.831-12.8 4.71 0 8.534-3.823 8.534-8.534 0-54.118 44.237-119.466 99.157-119.466 53.504 0 96.615 65.365 96.615 119.466 0 4.71 3.84 8.534 8.534 8.534 7.748 0 11.264 6.639 11.264 12.8v42.666c0 9.063 0 12.8-25.6 12.8-4.693 0-8.534 3.823-8.534 8.534v42.666c0 48.094-20.923 71.475-64 71.475zM389.342-14.421c-2.185 0-4.386 0.837-6.041 2.491l-42.666 42.666c-3.328 3.328-3.328 8.755 0 12.066 3.328 3.328 8.738 3.328 12.066 0l36.625-36.625 79.291 79.291c3.328 3.328 8.755 3.328 12.066 0 3.328-3.311 3.328-8.738 0-12.066l-85.334-85.334c-1.639-1.656-3.823-2.491-6.007-2.491zM37.342-18.688c-4.71 0-8.534 3.823-8.534 8.534 0 59.99 46.285 100.267 115.2 100.267h27.341l29.047 45.312c2.526 3.942 7.816 5.137 11.793 2.56 3.959-2.526 5.12-7.817 2.577-11.793l-31.573-49.238c-1.57-2.457-4.267-3.909-7.185-3.909h-32c-48.845 0-98.133-25.719-98.133-83.2 0-4.711-3.823-8.534-8.534-8.534z" />
<glyph unicode="&#xe741;" glyph-name="Checkout-Bag" d="M361.796 232.534c-4.711 0-8.534 3.823-8.534 8.534v155.733c0 40.789-27.050 66.133-70.588 66.133h-21.334c-37.939 0-78.745-20.685-78.745-66.133v-155.733c0-4.71-3.84-8.534-8.534-8.534-4.71 0-8.534 3.823-8.534 8.534v155.733c0 48.214 40.294 83.2 95.813 83.2h21.334c53.231 0 87.654-32.649 87.654-83.2v-155.733c0-4.71-3.823-8.534-8.534-8.534zM319.13-32h-292.454c-2.73 0-5.325 1.314-6.912 3.55-1.605 2.202-2.048 5.051-1.195 7.663l106.666 324.267c1.144 3.499 4.421 5.871 8.124 5.871h277.333c3.67 0 6.929-2.355 8.106-5.854l46.814-141.159c1.485-4.454-0.955-9.301-5.41-10.786-4.488-1.467-9.301 0.938-10.786 5.393l-44.868 135.339h-265.011l-101.052-307.2h280.644c4.693 0 8.534-3.84 8.534-8.534s-3.823-8.55-8.534-8.55zM400.009 4.267c-2.27 0-4.454 0.887-6.041 2.491l-42.666 42.666c-3.328 3.328-3.328 8.738 0 12.066s8.738 3.328 12.066 0l35.925-35.909 79.36 99.209c2.952 3.67 8.312 4.301 11.998 1.331 3.67-2.935 4.267-8.312 1.331-11.998l-85.334-106.666c-1.519-1.877-3.772-3.055-6.195-3.192-0.137 0.017-0.29 0-0.443 0z" />
<glyph unicode="&#xe76f;" glyph-name="Clock-Back" d="M55.108 179.2c-4.711 0-8.533 3.84-8.533 8.534 0 145.869 118.665 264.534 264.534 264.534 4.711 0 8.534-3.823 8.534-8.534s-3.823-8.534-8.534-8.534c-136.448 0-247.466-111.002-247.466-247.466 0-4.694-3.823-8.534-8.534-8.534zM55.108 173.858c-0.342 0-0.632 0.034-0.956 0.068-2.953 0.341-5.495 2.168-6.776 4.847l-37.683 80.35c-1.997 4.267-0.171 9.353 4.096 11.35 4.301 2.014 9.352 0.171 11.35-4.096l31.778-67.738 45.414 58.368c2.901 3.687 8.26 4.352 11.998 1.467s4.386-8.243 1.485-11.981l-53.965-69.342c-1.621-2.099-4.096-3.294-6.742-3.294zM311.108 358.4c94.225 0 170.666-76.424 170.666-170.666 0-94.225-76.442-170.666-170.667-170.666-94.242 0-170.667 76.442-170.667 170.667 0 94.242 76.391 170.667 170.667 170.667zM311.108 379.733c-105.882 0-192-86.118-192-192s86.118-192 192-192 192 86.118 192 192-86.135 192-192 192v0zM311.108 179.2c-2.185 0-4.369 0.837-6.041 2.491-3.311 3.328-3.311 8.738 0 12.066l85.334 85.334c3.328 3.328 8.755 3.328 12.066 0 3.328-3.328 3.328-8.721 0-12.066l-85.334-85.334c-1.673-1.656-3.857-2.491-6.024-2.491zM311.108 179.2c-2.185 0-4.369 0.837-6.041 2.491l-64 64c-3.311 3.345-3.311 8.738 0 12.066 3.328 3.328 8.755 3.328 12.066 0l64-64c3.328-3.328 3.328-8.738 0-12.066-1.673-1.656-3.857-2.491-6.024-2.491z" />
<glyph unicode="&#xe78a;" glyph-name="Cloud" d="M416.017 42.906h-298.666c-63.539 0-115.217 52.582-115.217 117.197 0 64.325 51.2 116.702 114.329 117.18 22.511 75.623 92.040 127.813 171.554 127.813 98.799 0 179.183-80.504 179.183-179.456 0-2.39-0.12-4.949-0.273-7.458 26.624-17.322 42.94-47.257 42.94-79.394 0-51.968-42.974-95.88-93.85-95.88zM118.63 260.028c-55.586 0-99.413-44.817-99.413-99.909 0-54.289 44.954-100.13 98.15-100.13h298.666c41.625 0 76.783 36.096 76.783 78.831 0 27.853-14.916 53.692-38.946 67.397-2.833 1.622-4.505 4.711-4.267 7.987 0.307 4.318 0.563 8.072 0.563 11.452 0 89.531-72.738 162.389-162.117 162.389-74.154 0-138.684-50.159-156.962-121.976-1.007-3.925-4.505-6.656-8.653-6.417-1.16 0.051-2.287 0.205-3.413 0.393-0.153-0.017-0.273-0.017-0.392-0.017z" />
<glyph unicode="&#xe792;" glyph-name="Code-Window" d="M503.466 10.666h-494.933c-4.71 0-8.534 3.84-8.534 8.534v409.6c0 4.71 3.823 8.534 8.534 8.534h494.933c4.693 0 8.534-3.823 8.534-8.534v-409.6c0-4.694-3.84-8.534-8.534-8.534zM17.067 27.733h477.866v392.534h-477.866v-392.534zM494.933 334.933h-477.866c-4.71 0-8.534 3.823-8.534 8.534s3.823 8.534 8.534 8.534h477.866c4.693 0 8.534-3.823 8.534-8.534s-3.84-8.534-8.534-8.534zM175.65 64.87c-2.833 0-5.615 1.416-7.237 3.993l-64.904 103.099c-1.861 2.969-1.724 6.776 0.359 9.608l64.904 87.995c2.799 3.789 8.141 4.608 11.929 1.792 3.789-2.799 4.608-8.141 1.792-11.929l-61.44-83.32 61.798-98.202c2.509-3.976 1.314-9.25-2.679-11.742-1.399-0.87-2.97-1.297-4.523-1.297zM345.395 64.87c-1.57 0-3.14 0.426-4.539 1.314-3.993 2.509-5.205 7.783-2.697 11.742l61.798 98.202-61.44 83.32c-2.799 3.806-1.997 9.131 1.792 11.93s9.13 1.997 11.93-1.792l64.904-87.995c2.065-2.833 2.202-6.639 0.358-9.608l-64.904-103.117c-1.604-2.577-4.369-3.993-7.202-3.993zM217.395 84.394c-1.417 0-2.833 0.358-4.165 1.075-4.113 2.304-5.581 7.475-3.277 11.623l84.446 151.108c2.304 4.113 7.475 5.581 11.639 3.294 4.096-2.304 5.563-7.493 3.26-11.606l-84.446-151.125c-1.57-2.765-4.454-4.369-7.458-4.369zM68.079 381.866c0-5.888-4.779-10.666-10.666-10.666s-10.666 4.779-10.666 10.666c0 5.888 4.779 10.667 10.666 10.667s10.666-4.779 10.666-10.667zM110.746 381.866c0-5.888-4.778-10.666-10.666-10.666s-10.666 4.779-10.666 10.666c0 5.888 4.778 10.667 10.666 10.667s10.666-4.779 10.666-10.667zM153.412 381.866c0-5.888-4.779-10.666-10.667-10.666s-10.666 4.779-10.666 10.666c0 5.888 4.779 10.667 10.666 10.667s10.666-4.779 10.666-10.667z" />
<glyph unicode="&#xe793;" glyph-name="Coding" d="M150.852 84.411c-2.184 0-4.369 0.837-6.042 2.491l-131.021 131.055c-3.328 3.328-3.328 8.738 0 12.066l131.021 131.038c3.328 3.345 8.738 3.345 12.066 0 3.328-3.328 3.328-8.721 0-12.066l-124.996-125.014 124.996-125.014c3.328-3.328 3.328-8.738 0-12.066-1.655-1.656-3.84-2.491-6.024-2.491zM361.147 84.411c-2.185 0-4.369 0.837-6.041 2.491-3.311 3.328-3.311 8.738 0 12.066l124.996 125.014-124.996 125.014c-3.311 3.328-3.311 8.738 0 12.066 3.328 3.345 8.738 3.345 12.066 0l131.038-131.038c3.328-3.328 3.328-8.738 0-12.066l-131.038-131.055c-1.673-1.656-3.857-2.491-6.024-2.491zM204.185 76.8c-1.041 0-2.065 0.188-3.072 0.563-4.386 1.69-6.588 6.639-4.898 11.025l106.667 277.334c1.724 4.403 6.622 6.587 11.025 4.898s6.605-6.639 4.898-11.025l-106.666-277.334c-1.297-3.379-4.54-5.462-7.953-5.462z" />
<glyph unicode="&#xe796;" glyph-name="Coffee-Machine" d="M503.466-32h-494.933c-4.71 0-8.534 3.84-8.534 8.534v85.334c0 4.694 3.823 8.534 8.534 8.534h255.539l59.733 238.934h-315.272c-4.71 0-8.534 3.823-8.534 8.534v153.6c0 4.711 3.823 8.534 8.534 8.534h494.933c4.693 0 8.534-3.823 8.534-8.534v-494.933c0-4.694-3.84-8.534-8.534-8.534zM17.067-14.933h477.866v477.866h-477.866v-136.534h317.679c2.611 0 5.103-1.212 6.724-3.277 1.639-2.065 2.185-4.762 1.57-7.322l-64-256c-0.973-3.806-4.369-6.469-8.294-6.469h-253.679v-68.267zM136.534 309.333h17.066v-34.133h-17.066v34.133zM155.204 53.334h-24.917c-43.606 0-79.087 38.434-79.087 85.675v76.459c0 4.711 3.823 8.534 8.534 8.534h170.667c4.71 0 8.534-3.823 8.534-8.534v-76.459c0-45.637-39.117-85.674-83.729-85.674zM68.266 206.933v-67.925c0-37.188 28.399-68.608 62.020-68.608h24.917c34.885 0 66.662 32.7 66.662 68.608v67.925h-153.6zM68.266 121.6h-32.632c-16.486 0-35.635 12.851-35.635 29.44v22.204c0 17.033 20.412 33.724 35.635 33.724h15.565v-17.067h-15.565c-7.117-0.017-18.569-10.274-18.569-16.674v-22.204c0-5.41 10.41-12.356 18.569-12.356h32.632v-17.067zM469.334 19.2h-85.334c-4.693 0-8.534 3.84-8.534 8.534v34.133c0 4.693 3.84 8.534 8.534 8.534h85.334c4.694 0 8.534-3.84 8.534-8.534v-34.134c0-4.693-3.84-8.534-8.534-8.534zM392.534 36.267h68.267v17.067h-68.267v-17.067z" />
<glyph unicode="&#xe7aa;" glyph-name="Compass-Rose" d="M253.918 182.801c-22.375 0-40.534 18.159-40.534 40.534s18.159 40.534 40.534 40.534c22.358 0 40.534-18.176 40.534-40.534 0-22.375-18.176-40.534-40.534-40.534zM253.918 246.784c-12.936 0-23.466-10.53-23.466-23.466 0-12.919 10.53-23.466 23.466-23.466 12.954 0 23.466 10.53 23.466 23.466s-10.513 23.466-23.466 23.466zM253.918 97.467c-69.393 0-125.867 56.474-125.867 125.866s56.474 125.866 125.867 125.866c69.376 0 125.866-56.473 125.866-125.866s-56.49-125.866-125.867-125.866zM253.918 332.118c-59.989 0-108.8-48.81-108.8-108.8s48.81-108.8 108.8-108.8c59.99 0 108.8 48.776 108.8 108.8 0 60.007-48.776 108.8-108.8 108.8zM170.462 300.613c-1.331 0-2.696 0.307-3.959 0.973-4.181 2.185-5.786 7.356-3.584 11.52l83.951 160c1.468 2.782 4.335 4.54 7.493 4.574 3.311-0.392 6.042-1.69 7.544-4.454l87.108-160c2.253-4.13 0.717-9.318-3.413-11.571-4.164-2.27-9.336-0.734-11.571 3.413l-79.48 145.971-76.544-145.851c-1.502-2.935-4.471-4.574-7.543-4.574zM254.43-29.662c-0.017 0-0.034 0-0.069 0-3.157 0.034-6.042 1.775-7.475 4.591l-83.951 159.181c-2.202 4.164-0.597 9.353 3.567 11.554 4.198 2.202 9.335 0.58 11.537-3.567l76.544-145.186 79.479 145.322c2.27 4.13 7.441 5.632 11.571 3.379 4.147-2.27 5.666-7.475 3.397-11.606l-87.108-159.232c-1.502-2.748-4.386-4.438-7.493-4.438zM170.871 129.928c-1.331 0-2.696 0.325-3.942 0.99l-160 83.968c-2.782 1.45-4.557 4.335-4.591 7.475s1.707 6.059 4.455 7.56l159.983 87.091c4.165 2.27 9.352 0.734 11.589-3.413 2.253-4.13 0.717-9.318-3.413-11.571l-145.988-79.462 145.869-76.527c4.181-2.168 5.786-7.373 3.584-11.52-1.502-2.918-4.488-4.591-7.543-4.591zM341.965 129.928c-3.106 0-6.041 1.673-7.56 4.574-2.202 4.164-0.598 9.319 3.567 11.537l145.169 76.527-145.288 79.463c-4.147 2.27-5.666 7.458-3.379 11.588 2.236 4.147 7.441 5.649 11.571 3.397l159.198-87.109c2.765-1.502 4.488-4.403 4.438-7.543-0.034-3.14-1.775-6.024-4.539-7.475l-159.232-83.951c-1.28-0.666-2.611-1.007-3.942-1.007zM147.081 263.356c-3.635 0-7.014 2.338-8.175 5.99l-26.727 85.794c-0.956 3.004-0.153 6.281 2.065 8.534s5.445 3.106 8.499 2.202l88.354-26.043c4.523-1.331 7.1-6.076 5.768-10.599s-6.042-7.117-10.599-5.768l-73.028 21.521 21.999-70.553c1.399-4.505-1.093-9.284-5.615-10.683-0.853-0.29-1.707-0.393-2.543-0.393zM290.031 331.537c-0.12 3.635 2.082 7.099 5.7 8.397l84.77 29.833c2.952 1.058 6.264 0.392 8.601-1.758 2.338-2.134 3.294-5.308 2.491-8.397l-22.801-89.258c-1.161-4.557-5.803-7.305-10.377-6.144s-7.356 5.786-6.144 10.377l18.841 73.779-69.683-24.542c-4.471-1.57-9.336 0.734-10.889 5.222-0.341 0.819-0.478 1.656-0.512 2.492zM361.694 185.89c3.635 0.086 7.065-2.168 8.312-5.803l28.808-85.111c1.024-2.969 0.325-6.264-1.861-8.584-2.151-2.304-5.342-3.226-8.431-2.406l-88.969 23.877c-4.557 1.229-7.236 5.905-6.024 10.462s5.871 7.271 10.445 6.024l73.541-19.729-23.705 69.99c-1.519 4.488 0.853 9.318 5.342 10.82 0.87 0.307 1.724 0.443 2.543 0.461zM215.177 116.002c0.034-3.635-2.253-7.048-5.888-8.243l-85.453-27.767c-2.987-0.99-6.281-0.239-8.55 1.962-2.27 2.185-3.174 5.393-2.304 8.465l24.952 88.661c1.28 4.539 5.99 7.168 10.53 5.905 4.54-1.28 7.185-5.974 5.888-10.53l-20.617-73.284 70.28 22.853c4.488 1.467 9.302-0.973 10.752-5.478 0.29-0.853 0.393-1.707 0.41-2.543zM216.218 177.067c-2.184 0-4.369 0.837-6.042 2.491-3.311 3.311-3.311 8.738 0 12.066l75.418 75.435c3.328 3.328 8.755 3.328 12.066 0 3.328-3.328 3.328-8.738 0-12.066l-75.418-75.434c-1.655-1.639-3.84-2.491-6.024-2.491z" />
<glyph unicode="&#xe7c3;" glyph-name="Credit-Card2" d="M428.8 44.8h-345.6c-45.875 0-83.2 37.325-83.2 83.2v192c0 45.875 37.325 83.2 83.2 83.2h345.6c45.875 0 83.2-37.325 83.2-83.2v-192c0-45.875-37.325-83.2-83.2-83.2zM83.2 386.134c-36.471 0-66.133-29.662-66.133-66.134v-192c0-36.471 29.662-66.134 66.133-66.134h345.6c36.471 0 66.133 29.662 66.133 66.134v192c0 36.471-29.662 66.134-66.134 66.134h-345.6zM17.067 334.933h477.866v-51.2h-477.866v51.2zM68.266 215.466h85.334v-17.067h-85.334v17.067zM68.266 181.334h170.666v-17.067h-170.667v17.067z" />
<glyph unicode="&#xe7d1;" glyph-name="Cursor-Click2" d="M463.155-28.33v0c-2.27 0-4.438 0.904-6.041 2.491l-121.293 121.412-55.825-62.31c-1.945-2.168-4.847-3.192-7.748-2.714-2.867 0.461-5.342 2.406-6.451 5.069l-126.395 296.465c-1.365 3.208-0.649 6.929 1.792 9.387 2.492 2.474 6.23 3.191 9.404 1.809l295.577-126.293c2.697-1.144 4.625-3.601 5.086-6.502 0.443-2.901-0.598-5.82-2.799-7.765l-64.938-57.122 122.471-122.555c3.311-3.311 3.311-8.755 0-12.066l-36.813-36.847c-1.604-1.587-3.755-2.457-6.024-2.457zM335.479 116.514c2.27 0 4.454-0.921 6.041-2.491l121.617-121.77 24.747 24.798-122.846 122.931c-1.673 1.69-2.577 3.942-2.491 6.332 0.068 2.355 1.11 4.574 2.885 6.11l61.577 54.17-263.611 112.64 112.793-264.584 52.923 59.034c1.57 1.758 3.789 2.765 6.127 2.833 0.086 0 0.154 0 0.239 0zM158.071 195.362c-0.649 0-1.297 0.068-1.946 0.239-48.418 11.298-82.245 53.982-82.245 103.783 0 58.777 47.838 106.615 106.598 106.615 50.142 0 94.021-35.55 104.311-84.566 0.973-4.625-1.979-9.13-6.587-10.103s-9.147 1.979-10.103 6.588c-8.67 41.147-45.5 71.014-87.637 71.014-49.374 0-89.531-40.175-89.531-89.549 0-41.83 28.399-77.671 69.086-87.142 4.591-1.075 7.441-5.666 6.366-10.274-0.939-3.959-4.454-6.605-8.311-6.605zM180.446 122.437c-97.57 0-176.93 79.36-176.93 176.947s79.36 176.964 176.93 176.964c97.587 0 176.947-79.377 176.947-176.964 0-4.711-3.823-8.534-8.534-8.534-4.693 0-8.534 3.823-8.534 8.534 0 88.166-71.731 159.898-159.881 159.898s-159.863-71.731-159.863-159.898c0-88.149 71.714-159.88 159.863-159.88 4.71 0 8.534-3.823 8.534-8.534s-3.789-8.534-8.534-8.534z" />
<glyph unicode="&#xe7f3;" glyph-name="Data-Storage" d="M439.466-14.933h-366.933c-40.005 0-72.534 32.529-72.534 72.534v25.6c0 40.022 32.529 72.534 72.534 72.534h366.933c40.005 0 72.534-32.512 72.534-72.534v-25.6c0-40.005-32.529-72.534-72.534-72.534zM72.534 138.666c-30.584 0-55.467-24.866-55.467-55.466v-25.6c0-30.567 24.883-55.466 55.467-55.466h366.933c30.584 0 55.466 24.901 55.466 55.466v25.6c0 30.601-24.883 55.466-55.466 55.466h-366.933zM416.87 51.2c-16.469 0-29.866 13.397-29.866 29.866s13.397 29.866 29.866 29.866 29.866-13.397 29.866-29.866-13.397-29.866-29.866-29.866zM416.87 93.866c-7.065 0-12.8-5.735-12.8-12.8s5.735-12.8 12.8-12.8 12.8 5.735 12.8 12.8-5.735 12.8-12.8 12.8zM23.245 115.507c-0.29 0-0.581 0-0.887 0.034-4.694 0.495-8.107 4.659-7.611 9.37l27.955 268.459c5.359 39.765 39.441 69.563 79.309 69.563h258.901c39.97 0 74.053-29.866 79.291-69.478l35.345-266.889c0.615-4.676-2.646-8.96-7.356-9.608-4.625-0.615-8.943 2.663-9.591 7.339l-35.345 266.923c-4.096 31.147-30.925 54.647-62.344 54.647h-258.901c-31.334 0-58.181-23.432-62.344-54.511l-27.938-268.219c-0.444-4.369-4.165-7.629-8.482-7.629z" />
<glyph unicode="&#xe841;" glyph-name="Duplicate-Window" d="M434.227 78.933h-426.666c-4.71 0-8.534 3.84-8.534 8.534v341.334c0 4.71 3.823 8.534 8.534 8.534h426.666c4.693 0 8.534-3.823 8.534-8.534v-341.334c0-4.693-3.823-8.534-8.534-8.534zM16.094 96h409.6v324.267h-409.6v-324.267zM425.694 334.933h-409.6c-4.71 0-8.534 3.823-8.534 8.534s3.823 8.534 8.534 8.534h409.6c4.694 0 8.534-3.823 8.534-8.534s-3.823-8.534-8.534-8.534zM459.639 352h-8.534c-4.693 0-8.534 3.823-8.534 8.534s3.84 8.534 8.534 8.534h8.534c4.711 0 8.534-3.823 8.534-8.534s-3.823-8.534-8.534-8.534zM504.44 343.466c-4.694 0-8.534 3.823-8.534 8.534-4.694 0-8.534 3.823-8.534 8.534s3.84 8.534 8.534 8.534h8.534c4.711 0 8.533-3.823 8.533-8.534v-8.534c0-4.711-3.823-8.534-8.534-8.534zM504.44 70.4c-4.694 0-8.534 3.84-8.534 8.534v17.067c0 4.693 3.84 8.534 8.534 8.534 4.711 0 8.533-3.84 8.533-8.534v-17.067c0-4.693-3.823-8.534-8.534-8.534zM504.44 138.666c-4.694 0-8.534 3.84-8.534 8.534v17.067c0 4.694 3.84 8.534 8.534 8.534 4.711 0 8.533-3.84 8.533-8.534v-17.067c0-4.694-3.823-8.534-8.534-8.534zM504.44 206.933c-4.694 0-8.534 3.84-8.534 8.534v17.066c0 4.71 3.84 8.534 8.534 8.534 4.711 0 8.533-3.823 8.533-8.534v-17.066c0-4.693-3.823-8.534-8.534-8.534zM504.44 275.2c-4.694 0-8.534 3.823-8.534 8.534v17.066c0 4.711 3.84 8.534 8.534 8.534 4.711 0 8.533-3.823 8.533-8.534v-17.066c0-4.71-3.823-8.534-8.534-8.534zM504.44 10.666h-8.534c-4.694 0-8.534 3.84-8.534 8.534s3.84 8.534 8.534 8.534c0 4.694 3.84 8.534 8.534 8.534 4.711 0 8.533-3.84 8.533-8.534v-8.534c0-4.694-3.823-8.534-8.534-8.534zM442.471 10.666h-17.8c-4.694 0-8.534 3.84-8.534 8.534s3.84 8.534 8.534 8.534h17.8c4.693 0 8.534-3.84 8.534-8.534s-3.806-8.534-8.534-8.534zM371.251 10.666h-17.8c-4.711 0-8.534 3.84-8.534 8.534s3.823 8.534 8.534 8.534h17.8c4.711 0 8.534-3.84 8.534-8.534s-3.823-8.534-8.534-8.534zM299.998 10.666h-17.8c-4.693 0-8.534 3.84-8.534 8.534s3.84 8.534 8.534 8.534h17.8c4.728 0 8.534-3.84 8.534-8.534s-3.806-8.534-8.534-8.534zM228.762 10.666h-17.8c-4.71 0-8.534 3.84-8.534 8.534s3.823 8.534 8.534 8.534h17.8c4.71 0 8.534-3.84 8.534-8.534s-3.806-8.534-8.534-8.534zM157.542 10.666h-17.8c-4.71 0-8.534 3.84-8.534 8.534s3.823 8.534 8.534 8.534h17.8c4.71 0 8.534-3.84 8.534-8.534s-3.823-8.534-8.534-8.534zM86.306 10.666h-8.534c-4.71 0-8.534 3.84-8.534 8.534v8.534c0 4.694 3.823 8.534 8.534 8.534s8.534-3.84 8.534-8.534c4.71 0 8.534-3.84 8.534-8.534s-3.823-8.534-8.534-8.534zM77.773 55.466c-4.71 0-8.534 3.84-8.534 8.534v8.534c0 4.693 3.823 8.534 8.534 8.534s8.534-3.84 8.534-8.534v-8.534c0-4.693-3.823-8.534-8.534-8.534zM67.106 381.866c0-5.888-4.779-10.666-10.666-10.666s-10.666 4.779-10.666 10.666c0 5.888 4.779 10.667 10.666 10.667s10.666-4.779 10.666-10.667zM109.773 381.866c0-5.888-4.778-10.666-10.666-10.666s-10.666 4.779-10.666 10.666c0 5.888 4.778 10.667 10.666 10.667s10.666-4.779 10.666-10.667zM152.44 381.866c0-5.888-4.779-10.666-10.666-10.666s-10.666 4.779-10.666 10.666c0 5.888 4.779 10.667 10.666 10.667s10.666-4.779 10.666-10.667z" />
<glyph unicode="&#xe854;" glyph-name="Email" d="M503.466 61.866h-494.933c-4.71 0-8.534 3.84-8.534 8.534v307.2c0 4.71 3.823 8.534 8.534 8.534h494.933c4.693 0 8.534-3.823 8.534-8.534v-307.2c0-4.693-3.84-8.534-8.534-8.534zM17.067 78.933h477.866v290.134h-477.866v-290.134zM260.062 171.008c-1.843 0-3.721 0.598-5.308 1.843l-191.983 151.654c-3.703 2.918-4.318 8.295-1.416 11.981 2.936 3.704 8.294 4.335 11.998 1.417l192-151.672c3.721-2.918 4.318-8.26 1.416-11.981-1.69-2.134-4.182-3.243-6.707-3.243zM260.079 171.008c-2.526 0-5.018 1.11-6.707 3.243-2.918 3.687-2.287 9.046 1.417 11.981l192 151.672c3.704 2.918 9.046 2.287 11.981-1.417 2.918-3.687 2.287-9.063-1.416-11.981l-192-151.654c-1.553-1.246-3.413-1.843-5.274-1.843zM68.079 113.562c-2.953 0-5.837 1.536-7.407 4.267-2.355 4.096-0.938 9.301 3.157 11.673l149.333 85.76c4.096 2.355 9.302 0.938 11.656-3.175 2.355-4.062 0.939-9.301-3.157-11.673l-149.333-85.743c-1.349-0.734-2.799-1.11-4.249-1.11zM452.062 113.562c-1.433 0-2.901 0.358-4.25 1.11l-149.333 85.743c-4.079 2.373-5.495 7.56-3.175 11.673 2.355 4.096 7.543 5.512 11.656 3.175l149.333-85.76c4.096-2.373 5.495-7.56 3.175-11.673-1.57-2.731-4.438-4.267-7.407-4.267z" />
<glyph unicode="&#xe883;" glyph-name="Family-Sign" horiz-adv-x="589" d="M80.879 350.925c-34.117 0-61.867 27.75-61.867 61.867 0 34.133 27.751 61.866 61.867 61.866s61.866-27.75 61.866-61.866-27.751-61.867-61.867-61.867zM80.879 457.591c-24.695 0-44.8-20.105-44.8-44.8s20.105-44.8 44.8-44.8c24.695 0 44.8 20.088 44.8 44.8s-20.105 44.8-44.8 44.8zM273.084 253.918c-24.781 0-44.971 20.173-44.971 44.937 0 24.798 20.19 44.97 44.971 44.97s44.954-20.173 44.954-44.971c0-24.747-20.19-44.936-44.954-44.936zM273.084 326.759c-15.377 0-27.904-12.51-27.904-27.904 0-15.377 12.51-27.87 27.904-27.87 15.36 0 27.887 12.493 27.887 27.87 0 15.411-12.51 27.904-27.887 27.904zM537.617-26.675h-102.4c-4.693 0-8.534 3.84-8.534 8.534v76.8h-37.462c-2.594 0-5.069 1.178-6.707 3.209-1.622 2.065-2.219 4.711-1.604 7.271l28.706 120.627v95.675c0 28.536 16.827 46.267 43.93 46.267h65.331c27.341 0 44.339-17.733 44.339-46.267v-95.693l26.812-118.409c0.683-1.229 1.075-2.628 1.075-4.13 0-4.745-4.438-8.534-8.738-8.534-0.034 0-0.102 0-0.17 0h-36.062v-76.8c0.017-4.711-3.823-8.55-8.516-8.55zM443.75-9.608h85.333v76.8c0 4.676 3.84 8.534 8.534 8.534h33.912l-25.191 111.207c-0.17 0.598-0.239 1.229-0.239 1.861v96.666c0 13.312-4.693 29.201-27.255 29.201h-65.331c-17.834 0-26.88-9.83-26.88-29.201v-96.666c0-0.666-0.068-1.331-0.239-1.997l-26.419-111.104h35.192c4.711 0 8.534-3.823 8.534-8.534v-76.766h0.051zM486.212 350.925c-34.116 0-61.866 27.75-61.866 61.867 0 34.133 27.75 61.866 61.866 61.866s61.866-27.75 61.866-61.866-27.75-61.867-61.866-61.867zM486.212 457.591c-24.695 0-44.8-20.105-44.8-44.8s20.104-44.8 44.8-44.8 44.8 20.088 44.8 44.8-20.105 44.8-44.8 44.8zM122.454 331.725h-74.24c-28.382 0-48.214-19.030-48.214-46.268v-139.315c0-1.945 0.648-3.857 1.861-5.342l15.207-18.978v-139.929c0-4.693 3.84-8.534 8.534-8.534h119.466c4.694 0 8.534 3.84 8.534 8.534v139.929l15.207 18.978c1.212 1.502 1.861 3.397 1.861 5.342v139.315c0 27.238-19.832 46.267-48.214 46.267zM153.6 149.146l-15.224-18.978c-1.195-1.502-1.843-3.362-1.843-5.342v-134.434h-102.4v134.434c0 1.962-0.648 3.84-1.843 5.342l-15.224 18.978v136.329c0 17.459 20.719 29.201 40.056 29.201h56.422c19.337 0 40.055-11.742 40.055-29.201v-136.329zM297.916 229.359h-49.698c-19.661 0-43.434-17.288-43.434-38.742v-95.181c0-3.397 2.696-5.495 5.189-7.851 5.393-5.103 11.879-12.39 11.879-12.39v-93.337c0-4.693 3.84-8.534 8.534-8.534h85.334c4.694 0 8.534 3.84 8.534 8.534v93.337c0 0 6.486 7.288 11.878 12.39 2.491 2.355 5.188 4.454 5.188 7.851v95.181c0.034 21.453-23.74 38.742-43.401 38.742zM324.284 101.069c0 0-7.339-8.192-11.861-12.408-2.491-2.321-5.205-4.403-5.205-7.834v-90.437h-68.267v90.437c0 3.43-2.696 5.512-5.189 7.834-4.54 4.199-11.879 12.408-11.879 12.408v89.531c0 10.974 15.104 21.692 26.368 21.692h49.698c11.264 0 26.351-10.735 26.351-21.692v-89.531z" />
<glyph unicode="&#xe8c4;" glyph-name="Finger-Print" d="M396.834 89.6c-2.014 0-4.045 0.7-5.666 2.151-3.533 3.123-3.84 8.517-0.717 12.049 52.668 59.306 78.216 133.376 70.058 203.281-6.844 58.76-36.539 109.432-83.558 142.695-3.857 2.731-4.762 8.038-2.048 11.896s8.055 4.761 11.896 2.048c51.046-36.096 83.251-91.017 90.675-154.658 8.721-74.735-18.363-153.685-74.257-216.593-1.707-1.894-4.027-2.867-6.383-2.867zM203.606-17.272c-2.594 0-5.206 1.178-6.861 3.464-2.799 3.789-1.997 9.13 1.775 11.93 60.211 44.425 95.778 77.363 152.218 140.97 42.599 47.957 63.368 106.94 57.002 161.826-5.086 43.639-26.897 81.066-61.371 105.369-71.493 50.279-170.615 30.021-241.032-49.272-3.141-3.55-8.534-3.84-12.049-0.717-3.533 3.158-3.84 8.517-0.717 12.049 76.39 86.033 184.815 107.367 263.629 51.917 38.519-27.119 62.839-68.813 68.505-117.334 6.929-59.733-15.377-123.563-61.184-175.155-57.361-64.649-93.525-98.134-154.863-143.36-1.519-1.144-3.294-1.69-5.052-1.69zM223.846 66.151c-2.44 0-4.813 1.024-6.519 3.003-3.055 3.584-2.594 8.977 0.99 12.032 29.389 25.002 55.382 51.115 92.706 93.184 32.563 36.625 48.606 80.555 43.947 120.474-0.546 4.676 2.816 8.909 7.475 9.455 4.693 0.581 8.926-2.816 9.472-7.492 5.205-44.749-12.373-93.491-48.145-133.735-37.888-42.735-64.358-69.342-94.413-94.89-1.587-1.349-3.584-2.031-5.512-2.031zM41.489 226.458c-2.56 0-5.12 1.161-6.776 3.362-2.85 3.738-2.133 9.096 1.605 11.947 34.85 26.59 58.181 48.776 96 91.306 58.778 66.185 136.465 83.746 193.297 43.725 3.857-2.714 4.779-8.038 2.065-11.879-2.714-3.857-8.038-4.778-11.896-2.065-49.391 34.782-117.999 18.261-170.718-41.114-38.673-43.469-62.584-66.185-98.424-93.525-1.519-1.195-3.345-1.758-5.154-1.758zM118.698 52.394c-2.662 0-5.308 1.263-6.946 3.567-2.748 3.857-1.843 9.165 1.98 11.93 68.847 49.135 101.239 78.302 157.56 141.756 22.204 24.986 33.741 54.545 30.908 79.070-1.553 13.346-7.458 23.962-17.015 30.703-30.225 21.316-72.192-1.195-100.403-32.922-49.425-55.637-77.875-81.186-138.359-124.365-3.857-2.765-9.165-1.843-11.913 1.997-2.713 3.84-1.826 9.165 1.997 11.878 59.273 42.274 87.109 67.311 135.51 121.788 39.919 44.953 89.344 59.238 122.982 35.55 13.671-9.608 22.016-24.389 24.149-42.701 3.379-29.269-9.711-63.795-35.089-92.365-57.327-64.598-90.334-94.242-160.41-144.333-1.502-1.007-3.225-1.553-4.95-1.553zM78.353 98.765c-2.68 0-5.325 1.246-6.981 3.618-2.731 3.857-1.792 9.182 2.065 11.878 76.442 53.829 111.65 86.392 171.366 158.259 3.021 3.635 8.397 4.13 12.015 1.109 3.618-3.003 4.13-8.397 1.092-12.015-60.843-73.284-96.768-106.445-174.643-161.331-1.502-1.024-3.243-1.519-4.915-1.519z" />
<glyph unicode="&#xe8c6;" glyph-name="Fingerprint-2" d="M474.812 79.462c-0.546 0-1.075 0.034-1.622 0.137-4.625 0.904-7.663 5.359-6.759 10.001 12.066 62.396 10.206 114.074 9.079 144.93l-0.256 6.878c0 121.105-100.164 219.392-223.3 219.392-68.062 0-134.246-32.904-177.032-88.030-2.901-3.755-8.243-4.421-11.981-1.536s-4.386 8.243-1.502 11.998c45.995 59.272 117.214 94.635 190.515 94.635 132.557 0 240.367-105.95 240.367-236.168l0.239-6.263c1.161-31.898 3.106-84.753-9.353-149.078-0.802-4.062-4.369-6.895-8.397-6.895zM27.102 195.67c-4.71 0-8.534 3.84-8.534 8.534v36.079c0 38.195 9.489 78.421 26.026 110.37 2.167 4.182 7.322 5.786 11.503 3.635 4.181-2.168 5.819-7.322 3.653-11.503-15.121-29.167-24.133-67.498-24.133-102.519v-36.079c0.017-4.693-3.806-8.517-8.517-8.517zM29.201 152.183c-4.71 0-8.534 3.823-8.534 8.534s3.823 8.534 8.534 8.534c13.619 0 23.501 10.82 23.501 25.736v45.312c0 104.022 90.197 191.914 196.915 191.914 26.982 0 54.681-5.325 77.944-14.967 4.352-1.792 6.417-6.793 4.625-11.144s-6.793-6.4-11.144-4.625c-21.265 8.823-46.609 13.671-71.424 13.671-97.468 0-179.849-80.060-179.849-174.848v-45.312c0-24.423-17.442-42.803-40.568-42.803zM409.361 15.121c-1.007 0-1.997 0.171-2.969 0.512-4.421 1.656-6.673 6.57-5.034 10.991 32.7 88.115 29.798 167.8 28.399 206.097l-0.12 3.089c-0.103 2.219-0.171 4.198-0.171 5.888 0 53.094-24.525 102.587-67.209 135.817-3.738 2.885-4.403 8.243-1.502 11.963 2.901 3.738 8.243 4.386 11.964 1.502 46.899-36.471 73.83-90.88 73.83-149.282 0-1.485 0.068-3.226 0.137-5.189l0.103-2.645c1.467-39.902 4.471-121.873-29.44-213.162-1.246-3.464-4.505-5.581-7.987-5.581zM347.341-11.673c-1.297 0-2.594 0.29-3.874 0.921-4.199 2.134-5.888 7.271-3.755 11.469 49.101 96.683 45.79 187.119 44.185 230.571l-0.086 2.27c-0.12 3.123-0.222 5.854-0.222 8.141 0 70.451-59.067 127.761-131.669 127.761-20.088 0-39.493-4.574-57.703-13.585-4.232-2.099-9.352-0.359-11.435 3.857-2.099 4.233-0.358 9.352 3.857 11.435 20.292 10.052 42.888 15.36 65.297 15.36 82.022 0 148.736-64.955 148.736-144.827 0-2.099 0.103-4.625 0.222-7.493l0.068-2.202c1.536-41.472 5.103-138.359-45.995-239.001-1.536-2.969-4.539-4.676-7.629-4.676zM111.719 231.749c-4.71 0-8.534 3.823-8.534 8.534 0 40.687 18.142 80.128 49.817 108.203 3.516 3.14 8.909 2.816 12.049-0.717 3.123-3.516 2.816-8.909-0.717-12.049-28.006-24.849-44.066-59.631-44.066-95.437-0.017-4.71-3.84-8.534-8.55-8.534zM31.539 104.601c-3.703 0-7.117 2.44-8.192 6.127-1.331 4.539 1.28 9.267 5.803 10.599l20.070 5.837c41.352 12.066 53.965 27.87 53.965 67.823 0 4.711 3.823 8.534 8.534 8.534s8.534-3.823 8.534-8.534c0-47.309-17.954-70.11-66.253-84.19l-20.070-5.871c-0.802-0.222-1.587-0.325-2.389-0.325zM283.409-29.849c-1.656 0-3.277 0.478-4.745 1.45-3.909 2.628-4.966 7.936-2.338 11.827 42.513 63.232 62.942 135.356 62.43 220.433-0.034 4.711 3.772 8.567 8.482 8.601 0.017 0 0.034 0 0.051 0 4.694 0 8.499-3.806 8.534-8.499 0.495-87.399-21.47-164.779-65.331-230.042-1.622-2.457-4.318-3.772-7.082-3.772zM59.017 66.594c-3.703 0-7.117 2.44-8.192 6.144-1.331 4.522 1.28 9.25 5.803 10.582 58.573 17.067 81.408 48.367 81.408 111.633v45.312c0 53.589 50.654 100.591 108.407 100.591 56.764 0 102.912-44.476 102.912-99.174 0-4.71-3.823-8.534-8.534-8.534-4.693 0-8.534 3.823-8.534 8.534 0 45.261-38.502 82.107-85.846 82.107-47.803 0-91.341-39.817-91.341-83.524v-45.312c0-70.605-28.023-108.885-93.696-128.017-0.802-0.205-1.605-0.341-2.389-0.341zM227.294-28.86c-1.894 0-3.823 0.632-5.393 1.928-3.653 2.969-4.198 8.363-1.212 12.015 28.672 35.123 49.050 75.042 60.57 118.767 1.195 4.591 5.871 7.288 10.428 6.075 4.557-1.195 7.271-5.888 6.058-10.428-12.151-46.080-33.639-88.201-63.846-125.218-1.673-2.082-4.13-3.14-6.605-3.14zM99.55 28.16c-3.481 0-6.758 2.134-8.022 5.598-1.621 4.438 0.665 9.336 5.103 10.957 90.658 33.024 109.688 99.942 109.688 150.289v45.295c0 30.788 22.562 54.904 51.371 54.904 30.396 0 54.221-23.483 54.221-53.487 0-3.959 0.375-9.011 0.819-15.018 0.853-11.537 1.997-27.341 1.297-45.431-0.205-4.693-4.233-8.567-8.875-8.192-4.693 0.205-8.363 4.164-8.175 8.875 0.683 17.152-0.375 31.761-1.263 43.52-0.478 6.486-0.87 11.964-0.87 16.264 0 20.412-16.315 36.421-37.154 36.421-19.559 0-34.304-16.264-34.304-37.837v-45.295c0-78.865-42.94-137.933-120.918-166.332-0.973-0.392-1.963-0.529-2.918-0.529zM225.195 68.318c-1.331 0-2.662 0.325-3.925 0.955-4.181 2.168-5.82 7.339-3.635 11.503 15.565 30.003 22.801 63.437 22.801 105.13v35.362c0 4.71 3.823 8.534 8.534 8.534s8.534-3.823 8.534-8.534v-35.328c0-43.964-8.089-80.93-24.73-112.999-1.519-2.935-4.488-4.625-7.577-4.625zM153.088-8.295c-2.901 0-5.734 1.485-7.339 4.164-2.423 4.027-1.093 9.284 2.952 11.707 18.449 11.025 34.219 24.030 46.882 38.673 3.089 3.55 8.465 3.959 12.032 0.87s3.942-8.482 0.87-12.049c-13.858-16.009-31.027-30.191-51.029-42.154-1.365-0.819-2.867-1.212-4.369-1.212z" />
<glyph unicode="&#xe8c7;" glyph-name="Fingerprint" d="M92.023 326.878c-1.109 0-2.236 0.222-3.311 0.683-4.352 1.826-6.383 6.844-4.54 11.178 47.257 111.803 171.35 160.905 250.76 130.048 56.61-21.999 91.631-63.675 104.055-123.921 0.955-4.608-2.031-9.113-6.656-10.070-4.591-0.955-9.096 2.031-10.070 6.639-11.332 54.938-41.899 91.392-93.508 111.445-70.622 27.392-185.993-19.405-228.864-120.798-1.4-3.26-4.557-5.206-7.868-5.206zM407.962 96c-0.632 0-1.28 0.068-1.928 0.222-4.591 1.058-7.458 5.632-6.4 10.257 5.666 24.61 10.035 50.739 14.661 78.37 1.894 11.332 3.806 22.699 5.82 34.048 4.438 25.088 6.759 48.606 6.878 69.888 0.034 4.711 3.43 8.209 8.601 8.482 4.694-0.034 8.499-3.874 8.465-8.567-0.137-22.255-2.526-46.745-7.134-72.772-1.997-11.281-3.909-22.613-5.803-33.877-4.471-26.675-9.063-54.272-14.865-79.394-0.887-3.993-4.386-6.656-8.294-6.656zM306.313-29.832c-27.631 0-61.218 11.008-95.044 31.727-80.128 49.152-133.683 132.727-143.292 223.607-0.478 4.694 2.901 8.892 7.594 9.387 4.694 0.461 8.891-2.901 9.386-7.577 9.046-85.657 59.597-164.455 135.237-210.841 41.54-25.464 83.149-35.243 108.561-25.531 4.369 1.707 9.318-0.512 11.025-4.933 1.707-4.403-0.512-9.336-4.933-11.025-8.414-3.226-18.039-4.813-28.536-4.813zM160.205 89.019c-2.509 0-5.018 1.11-6.707 3.243-30.464 38.69-48.828 84.531-53.129 132.591-5.751 63.983 17.903 110.029 38.758 137.404 2.85 3.755 8.192 4.488 11.946 1.622 3.755-2.85 4.488-8.192 1.621-11.947-19.012-24.986-40.584-67.038-35.328-125.56 3.993-44.749 21.129-87.466 49.528-123.529 2.918-3.704 2.287-9.063-1.417-11.998-1.553-1.246-3.397-1.826-5.274-1.826zM288.87 11.673c-28.143 0-62.379 13.892-94.020 38.963-3.686 2.918-4.318 8.26-1.382 11.981 2.918 3.687 8.278 4.318 11.981 1.382 34.85-27.614 73.626-40.653 98.765-33.229 55.637 16.469 71.237 98.594 83.49 188.57 9.933 73.011 3.481 165.854-83.644 193.673-26.966 8.618-58.948 4.966-89.959-10.274-4.25-2.082-9.352-0.325-11.417 3.909s-0.341 9.336 3.891 11.418c35.004 17.186 71.475 21.162 102.707 11.195 76.766-24.507 110.626-99.874 95.351-212.224-13.022-95.761-30.123-183.313-95.556-202.649-6.281-1.826-13.039-2.714-20.207-2.714zM354.56 151.040c-0.632 0-1.263 0.068-1.894 0.205-4.591 1.058-7.475 5.632-6.434 10.223 3.823 16.81 6.827 36.488 9.011 58.385 6.724 67.43-9.95 119.023-45.721 141.551-3.993 2.509-5.205 7.783-2.697 11.759 2.509 3.993 7.8 5.188 11.759 2.679 42.070-26.487 61.115-82.483 53.641-157.679-2.236-22.613-5.376-42.957-9.336-60.467-0.887-3.959-4.421-6.656-8.329-6.656zM274.808 53.623c-27.409 0-59.46 16.35-86.733 44.971-16.776 17.579-30.686 39.031-40.226 61.969-8.431 20.275-13.5 41.677-15.087 63.59-3.618 50.193 14.302 97.912 49.169 130.867 31.215 29.509 71.987 42.394 106.359 33.673 4.591-1.161 7.356-5.82 6.144-10.377-1.144-4.557-5.803-7.322-10.342-6.161-28.809 7.322-63.437-3.976-90.454-29.509-31.13-29.44-47.121-72.175-43.844-117.248 1.434-20.070 6.076-39.68 13.807-58.282 8.755-20.992 21.487-40.635 36.83-56.73 27.323-28.672 60.296-43.844 83.985-38.707 16.145 3.55 29.303 13.875 40.175 31.608 2.491 3.993 7.731 5.274 11.742 2.799 4.010-2.491 5.257-7.731 2.799-11.742-13.243-21.555-30.447-34.765-51.080-39.322-4.25-0.955-8.687-1.399-13.243-1.399zM331.366 211.32c-0.188 0-0.358 0-0.563 0.017-4.693 0.341-8.26 4.386-7.97 9.079 3.209 47.599-9.301 101.495-53.829 110.029-8.618 1.638-17.681 0.887-26.914-2.27-4.471-1.519-9.302 0.854-10.838 5.308-1.519 4.471 0.853 9.319 5.325 10.838 12.066 4.13 24.047 5.086 35.618 2.885 46.438-8.892 72.329-57.925 67.67-127.931-0.29-4.505-4.027-7.953-8.499-7.953zM264.704 96c-15.291 0-31.898 6.759-47.531 19.558-30.293 24.764-49.75 65.075-52.019 107.895-1.314 24.559 3.72 48.486 14.541 69.154 2.167 4.182 7.322 5.786 11.52 3.601 4.181-2.185 5.786-7.339 3.601-11.52-9.387-17.954-13.756-38.827-12.63-60.348 2.389-44.817 25.225-78.797 45.79-95.591 14.166-11.571 29.286-17.169 41.421-15.36 24.729 3.67 37.803 30.856 44.407 52.992 1.349 4.539 6.093 7.099 10.615 5.752s7.099-6.075 5.752-10.615c-11.503-38.605-31.642-61.082-58.266-65.041-2.373-0.307-4.779-0.478-7.202-0.478zM257.928 138.565c-10.001 0-20.548 4.522-29.969 12.937-17.834 15.906-29.491 43.23-30.395 71.322-0.922 27.494 8.909 53.316 26.282 69.069 11.213 10.172 24.423 14.831 37.12 13.175 29.56-3.874 48.264-37.888 46.524-84.668-0.171-4.711-4.027-8.431-8.841-8.209-4.711 0.171-8.397 4.13-8.209 8.841 1.365 36.898-11.69 64.495-31.675 67.106-7.646 1.024-16.008-2.15-23.45-8.892-13.482-12.237-21.418-33.638-20.685-55.859 0.922-28.177 13.363-49.033 24.696-59.136 6.758-6.024 13.773-9.011 19.866-8.55 4.711 0.426 8.841-3.14 9.199-7.817s-3.106-8.824-7.8-9.199c-0.904-0.086-1.758-0.12-2.663-0.12z" />
<glyph unicode="&#xe98e;" glyph-name="Hand-Touch" d="M167.031 181.368c-4.71 0-8.534 3.84-8.534 8.534v194.85c0 21.026 19.934 39.475 42.666 39.475s42.666-18.227 42.666-39.014v-144.094c0-4.71-3.823-8.534-8.534-8.534s-8.534 3.823-8.534 8.534v144.094c0 11.486-12.202 21.947-25.6 21.947-13.159 0-25.6-10.889-25.6-22.409v-194.85c0-4.694-3.823-8.534-8.534-8.534zM303.565 198.434c-4.694 0-8.534 3.84-8.534 8.534v49.784c0 11.52-12.442 22.409-25.6 22.409-13.397 0-25.6-10.462-25.6-21.947v-50.227c0-4.711-3.823-8.534-8.534-8.534s-8.534 3.823-8.534 8.534v50.227c0 20.787 19.934 39.014 42.667 39.014s42.666-18.449 42.666-39.475v-49.784c0-4.693-3.823-8.534-8.534-8.534zM371.832 181.368c-4.693 0-8.534 3.84-8.534 8.534v45.517c0 11.52-12.442 22.409-25.6 22.409-13.397 0-25.6-10.462-25.6-21.947v-45.961c0-4.711-3.84-8.534-8.534-8.534s-8.534 3.823-8.534 8.534v45.96c0 20.787 19.934 39.015 42.666 39.015s42.666-18.449 42.666-39.475v-45.517c0-4.694-3.823-8.534-8.534-8.534zM342.579-31.966h-120.542c-49.169 0-84.702 78.131-116.070 147.081-12.1 26.607-23.535 51.746-33.144 65.246-11.367 16.026-14.422 40.721 1.741 56.883 15.957 15.958 41.25 16.64 56.354 1.519l52.156-53.078c3.294-3.362 3.243-8.772-0.102-12.083-3.362-3.26-8.755-3.226-12.083 0.12l-52.088 53.026c-8.261 8.278-23.040 7.577-32.171-1.57-9.37-9.37-6.929-24.986 0.103-34.901 10.547-14.831 21.76-39.51 34.765-68.079 26.317-57.856 62.345-137.063 100.54-137.063h118.784c11.69 5.12 90.726 42.496 90.726 113.562v115.405c0 11.742-11.861 22.409-24.883 22.409-12.168 0-26.317-9.591-26.317-21.947v-58.76c0-4.693-3.823-8.534-8.534-8.534-4.694 0-8.534 3.84-8.534 8.534v58.76c0 22.989 22.87 39.014 43.383 39.014 22.358 0 41.95-18.449 41.95-39.475v-115.422c0-87.978-98.697-128.358-102.895-130.031-0.99-0.409-2.048-0.615-3.14-0.615zM167.031 285.389c-1.058 0-2.117 0.205-3.141 0.597-12.817 5.069-21.982 12.527-31.795 22.204-19.353 19.029-30.003 44.322-30.003 71.237 0 26.897 10.666 52.19 30.003 71.202 39.868 39.134 104.704 39.117 144.538 0 19.37-19.030 30.003-44.322 30.003-71.219 0-26.914-10.666-52.207-30.003-71.236-9.575-9.387-20.719-16.709-33.178-21.811-4.335-1.792-9.335 0.307-11.127 4.659-1.775 4.369 0.307 9.353 4.659 11.128 10.393 4.25 19.712 10.359 27.682 18.176 16.043 15.787 24.901 36.745 24.901 59.051 0 22.289-8.858 43.247-24.901 59.050-33.229 32.632-87.347 32.649-120.61-0.017-16.042-15.786-24.9-36.744-24.9-59.033 0-22.306 8.857-43.264 24.9-59.067 8.567-8.431 15.94-14.473 26.112-18.5 4.386-1.741 6.519-6.69 4.796-11.059-1.331-3.328-4.54-5.359-7.936-5.359z" />
<glyph unicode="&#xe993;" glyph-name="Handshake" d="M252.894 77.568c-11.042 0-22.358 4.13-29.355 8.755-9.421 6.178-70.11 56.542-104.482 85.334l-28.996 24.423c-3.601 3.038-4.062 8.414-1.024 12.032 3.038 3.601 8.431 4.062 12.015 1.007l28.962-24.371c44.476-37.257 95.675-79.394 102.895-84.138 5.427-3.601 15.018-6.759 22.869-5.769 7.373 0.837 9.626 4.83 10.701 7.765 0.973 2.663 3.209 4.659 6.007 5.342 2.765 0.666 5.666-0.068 7.765-1.962 6.963-6.349 17.767-6.861 24.866-4.13 3.84 1.502 8.534 4.539 9.096 10.632 0.307 3.226 2.423 6.041 5.445 7.202 3.055 1.127 6.469 0.495 8.858-1.741 3.704-3.43 11.827-3.515 18.568-0.137 3.038 1.519 9.967 5.922 9.096 14.097-0.358 3.294 1.263 6.536 4.13 8.226s6.469 1.604 9.199-0.307c4.13-2.867 9.165-0.837 12.237 1.775 4.574 3.909 7.834 11.384 3.397 20.651-12.356 25.685-78.473 88.423-118.459 116.173l-1.365-0.495c-11.639-4.233-12.305-4.403-21.435-5.291-10.599-15.548-30.532-41.335-61.218-31.232-9.233 3.038-15.548 10.001-17.784 19.593-5.222 22.409 11.708 53.658 25.907 67.618 23.518 23.057 66.577 43.008 110.609 23.313 41.745-18.688 67.823-26.419 68.045-26.488 4.539-1.331 7.099-6.076 5.803-10.599-1.331-4.54-6.075-7.117-10.599-5.786-1.092 0.341-27.306 8.072-70.229 27.307-36.199 16.213-72.022-0.615-91.699-19.917-12.254-12.032-24.474-37.717-21.248-51.558 0.905-3.891 2.85-6.042 6.486-7.254 19.183-6.349 32.717 11.077 43.964 27.87 1.417 2.116 3.703 3.481 6.23 3.738l3.925 0.375c7.373 0.7 7.373 0.7 17.374 4.352l5.495 1.997c2.526 0.922 5.359 0.581 7.629-0.921 38.4-25.6 112.555-93.406 127.931-125.406 7.134-14.814 4.096-30.908-7.697-40.994-6.229-5.342-13.738-7.783-20.975-7.168-2.594-7.885-8.584-14.661-17.152-18.961-8.892-4.438-18.791-5.359-27.034-3.021-3.379-6.024-9.011-10.718-16.401-13.585-11.077-4.301-23.791-3.533-34.065 1.673-4.642-5.393-11.281-8.772-19.405-9.694-1.587-0.222-3.243-0.325-4.881-0.325zM218.436 330.206c-0.307 0-0.614 0.017-0.939 0.051-22.289 2.441-73.814 3.926-91.119 3.431-4.694-0.171-8.636 3.55-8.773 8.277-0.136 4.694 3.567 8.618 8.278 8.772 17.664 0.444 70.571-1.041 93.457-3.533 4.677-0.512 8.072-4.728 7.56-9.404-0.461-4.352-4.165-7.594-8.465-7.594zM395.759 161.741c-2.56 0-5.103 1.127-6.776 3.379-2.85 3.755-2.116 9.079 1.656 11.947l20.873 15.855c3.772 2.85 9.113 2.116 11.964-1.656 2.85-3.738 2.116-9.096-1.639-11.947l-20.889-15.855c-1.57-1.161-3.379-1.724-5.188-1.724zM364.663 124.262c-1.861 0-3.721 0.598-5.308 1.809-11.111 8.789-69.598 63.488-72.106 65.775-3.43 3.209-3.618 8.635-0.392 12.066s8.635 3.635 12.066 0.392c20.873-19.541 62.567-58.197 70.998-64.87 3.704-2.935 4.335-8.294 1.433-11.998-1.673-2.065-4.181-3.175-6.69-3.175zM322.697 103.134c-1.861 0-3.772 0.632-5.342 1.861-14.404 11.503-54.989 48.026-61.082 54.699-3.208 3.447-2.97 8.875 0.495 12.066 3.464 3.209 8.892 2.969 12.049-0.529 4.983-5.393 45.005-41.575 59.17-52.889 3.687-2.952 4.284-8.312 1.349-11.981-1.656-2.134-4.13-3.226-6.639-3.226zM274.5 91.136c-1.928 0-3.909 0.666-5.495 1.997-13.807 11.673-32.837 30.635-45.585 44.322-3.208 3.447-3.021 8.858 0.41 12.066 3.447 3.192 8.857 3.021 12.066-0.409 12.407-13.295 30.857-31.71 44.117-42.906 3.601-3.055 4.062-8.431 1.041-12.032-1.707-2.014-4.113-3.038-6.553-3.038zM38.349 159.608v0c-13.142 0-22.75 0.768-29.406 2.373-3.857 0.938-6.571 4.403-6.537 8.397 0.717 77.329 21.401 191.897 21.607 193.041 0.819 4.574 5.12 7.629 9.711 6.912 2.782-0.41 68.335-10.65 95.232-20.019 3.686-1.297 6.042-4.915 5.683-8.79-4.83-55.245-42.666-169.079-44.271-173.91-1.075-3.209-3.925-5.462-7.305-5.803-0.939-0.103-23.433-2.202-44.715-2.202zM19.61 177.493c4.267-0.461 10.291-0.837 18.739-0.837 14.319 0 29.611 1.041 37.581 1.639 7.27 22.341 34.919 109.415 40.994 157.883-22.067 6.451-60.689 13.159-77.534 15.941-4.54-26.471-18.227-111.275-19.78-174.626zM466.637 165.205c-22.63 0-37.7 1.673-46.063 5.137-2.474 1.007-4.301 3.072-5 5.632-8.175 29.679-38.434 114.705-51.507 135.697-1.297 2.099-1.639 4.642-0.938 6.998 0.734 2.355 2.44 4.284 4.659 5.308 1.519 0.683 37.546 16.64 76.135 16.64 8.106 0 15.872-0.717 23.006-2.134 2.134-0.392 4.010-1.638 5.291-3.396 25.89-36.062 36.881-154.385 37.342-159.403 0.205-2.304-0.512-4.574-1.997-6.332-1.502-1.741-3.635-2.799-5.922-2.969-0.649-0.086-16.793-1.178-35.004-1.178zM430.745 184.969c5.376-1.297 15.855-2.697 35.909-2.697 9.591 0 18.705 0.341 25.071 0.666-3.909 36.711-14.814 111.975-31.505 139.4-5.103 0.802-10.565 1.195-16.264 1.195-24.303 0-48.162-7.288-60.502-11.759 15.138-30.345 38.844-98.082 47.291-126.805z" />
<glyph unicode="&#xe9c4;" glyph-name="Hospital-2" d="M375.466-32h-238.934c-4.71 0-8.534 3.84-8.534 8.534v494.933c0 4.711 3.823 8.534 8.534 8.534h238.934c4.693 0 8.534-3.823 8.534-8.534v-494.933c0-4.693-3.84-8.534-8.534-8.534zM145.066-14.933h221.867v477.866h-221.867v-477.866zM324.267-23.466c-4.694 0-8.534 3.84-8.534 8.534v85.334h-119.466v-85.334c0-4.693-3.823-8.534-8.534-8.534s-8.534 3.84-8.534 8.534v93.866c0 4.693 3.823 8.534 8.534 8.534h136.534c4.694 0 8.534-3.84 8.534-8.534v-93.866c0-4.693-3.84-8.534-8.534-8.534zM238.934 138.666h-68.266c-4.71 0-8.534 3.84-8.534 8.534v102.4c0 4.71 3.823 8.534 8.534 8.534h68.267c4.71 0 8.534-3.823 8.534-8.534v-102.4c0-4.694-3.823-8.534-8.534-8.534zM179.2 155.733h51.2v85.334h-51.2v-85.334zM341.334 138.666h-68.267c-4.693 0-8.534 3.84-8.534 8.534v102.4c0 4.71 3.84 8.534 8.534 8.534h68.267c4.694 0 8.534-3.823 8.534-8.534v-102.4c0-4.694-3.84-8.534-8.534-8.534zM281.6 155.733h51.2v85.334h-51.2v-85.334zM273.067 292.267h-34.133c-4.71 0-8.534 3.823-8.534 8.534v42.666h-42.667c-4.71 0-8.534 3.823-8.534 8.534v34.134c0 4.71 3.823 8.534 8.534 8.534h42.666v42.666c0 4.71 3.823 8.534 8.534 8.534h34.134c4.693 0 8.534-3.823 8.534-8.534v-42.666h42.666c4.694 0 8.534-3.823 8.534-8.534v-34.134c0-4.711-3.84-8.534-8.534-8.534h-42.666v-42.666c0-4.71-3.84-8.534-8.534-8.534zM247.466 309.333h17.067v42.667c0 4.711 3.84 8.534 8.534 8.534h42.666v17.067h-42.666c-4.693 0-8.534 3.823-8.534 8.534v42.666h-17.066v-42.666c0-4.711-3.823-8.534-8.534-8.534h-42.667v-17.067h42.666c4.71 0 8.534-3.823 8.534-8.534v-42.666z" />
<glyph unicode="&#xe9c9;" glyph-name="Hour" d="M256-24.132c-124.416 0-225.621 101.223-225.621 225.622 0 120.798 94.447 219.784 215.006 225.365 4.557 0.103 8.704-3.447 8.909-8.141 0.222-4.71-3.43-8.704-8.158-8.926-111.411-5.154-198.707-96.649-198.707-208.298 0-114.978 93.542-208.554 208.554-208.554 114.978 0 208.555 93.543 208.555 208.554 0 59.938-25.873 117.043-70.981 156.689-3.55 3.106-3.891 8.499-0.768 12.049 3.106 3.533 8.499 3.891 12.049 0.768 48.793-42.871 76.783-104.653 76.783-169.506-0.017-124.416-101.223-225.621-225.621-225.621zM138.649 72.909c-2.185 0-4.369 0.837-6.042 2.491-3.311 3.345-3.311 8.772 0 12.101l117.35 117.334c3.328 3.311 8.755 3.311 12.066 0 3.328-3.328 3.328-8.755 0-12.066l-117.351-117.334c-1.655-1.707-3.84-2.526-6.024-2.526zM327.56 118.699c-2.202 0-4.386 0.837-6.041 2.491l-71.56 71.543c-3.311 3.328-3.311 8.755 0 12.066 3.328 3.328 8.755 3.328 12.066 0l71.56-71.526c3.328-3.328 3.328-8.738 0-12.083-1.656-1.656-3.84-2.491-6.024-2.491zM213.351 348.86c-1.638 0-3.277 0.461-4.744 1.45-3.909 2.628-4.95 7.919-2.321 11.844l37.871 56.423-56.849 37.939c-3.925 2.594-4.983 7.902-2.373 11.81 2.611 3.925 7.919 4.983 11.827 2.389l63.983-42.667c1.877-1.246 3.209-3.208 3.635-5.427 0.426-2.236-0.017-4.54-1.28-6.417l-42.649-63.539c-1.655-2.474-4.352-3.806-7.1-3.806z" />
<glyph unicode="&#xea13;" glyph-name="Laptop-3" d="M469.334 19.2h-426.666c-11.845 0-21.436 4.284-27.050 12.049-5.342 7.39-6.366 17.101-2.936 27.375l22.494 64.239c7.168 21.538 30.669 32.87 50.159 32.87h341.333c19.507 0 43.008-11.332 50.193-33.007l22.409-63.966c3.498-10.411 2.44-20.156-2.867-27.512-5.598-7.765-15.224-12.049-27.067-12.049zM85.334 138.666c-15.343 0-29.969-9.165-34.014-21.334l-22.494-64.205c-1.093-3.397-1.98-8.295 0.631-11.896 2.287-3.175 7.1-4.966 13.21-4.966h426.666c6.093 0 10.94 1.792 13.192 4.966 2.594 3.601 1.775 8.517 0.598 12.032l-22.409 63.966c-4.096 12.305-18.739 21.453-34.065 21.453l-341.317-0.017zM424.738 138.666h-345.617c-22.358 0-40.533 18.159-40.533 40.534v209.066c0 22.358 18.176 40.534 40.533 40.534h345.6c22.358 0 40.534-18.176 40.534-40.534v-209.066c0.017-22.375-18.176-40.534-40.517-40.534zM79.121 411.733c-12.936 0-23.466-10.53-23.466-23.466v-209.066c0-12.937 10.53-23.466 23.466-23.466h345.6c12.937 0 23.466 10.53 23.466 23.466v209.067c0.017 12.936-10.513 23.466-23.45 23.466h-345.617zM123.921 104.534h-17.067c-4.71 0-8.534 3.84-8.534 8.534s3.823 8.534 8.534 8.534h17.067c4.711 0 8.533-3.84 8.533-8.534s-3.823-8.534-8.534-8.534zM397.005 104.534h-221.867c-4.71 0-8.534 3.84-8.534 8.534s3.823 8.534 8.534 8.534h221.867c4.693 0 8.534-3.84 8.534-8.534s-3.84-8.534-8.534-8.534zM431.138 70.4h-341.334c-4.71 0-8.534 3.84-8.534 8.534s3.823 8.534 8.534 8.534h341.334c4.694 0 8.534-3.84 8.534-8.534s-3.84-8.534-8.534-8.534z" />
<glyph unicode="&#xea14;" glyph-name="Laptop-Phone" d="M358.4 78.933h-325.529c-19.968 0-32.87 17.579-32.87 44.8v14.933c0 4.694 3.823 8.534 8.534 8.534h349.866c4.693 0 8.534-3.84 8.534-8.534s-3.84-8.534-8.534-8.534h-341.334v-6.4c0-2.85 0.444-27.733 15.803-27.733h325.529c4.694 0 8.534-3.84 8.534-8.534s-3.84-8.534-8.534-8.534zM358.4 130.134h-315.733c-4.71 0-8.534 3.84-8.534 8.534v262.4c0 20.975 17.784 53.334 41.404 53.334h358.4c23.825 0 43.93-32.751 43.93-53.334v-134.4c0-4.711-3.84-8.534-8.534-8.534s-8.534 3.823-8.534 8.534v134.4c0 13.79-15.002 36.267-26.863 36.267h-358.4c-11.281 0-24.337-21.947-24.337-36.267v-253.866h307.2c4.693 0 8.534-3.84 8.534-8.534s-3.84-8.534-8.534-8.534zM358.4 164.267h-264.534c-4.71 0-8.534 3.84-8.534 8.534v221.867c0 4.71 3.823 8.534 8.534 8.534h324.267c4.694 0 8.534-3.823 8.534-8.534v-128c0-4.711-3.84-8.534-8.534-8.534s-8.534 3.823-8.534 8.534v119.466h-307.2v-204.8h256c4.693 0 8.534-3.84 8.534-8.534s-3.84-8.534-8.534-8.534zM486.793-6.4h-103.219c-13.875 0-25.207 11.298-25.207 25.207v222.669c0 13.875 11.315 25.191 25.207 25.191h103.219c13.875 0 25.207-11.298 25.207-25.19v-222.686c0-13.892-11.315-25.19-25.207-25.19zM383.608 249.6c-4.488 0-8.141-3.635-8.141-8.124v-222.686c0-4.471 3.652-8.123 8.141-8.123h103.219c4.488 0 8.141 3.635 8.141 8.123v222.686c0 4.488-3.652 8.124-8.141 8.124h-103.219zM494.933 215.466h-119.466c-4.693 0-8.534 3.823-8.534 8.534s3.84 8.534 8.534 8.534h119.466c4.693 0 8.534-3.823 8.534-8.534s-3.84-8.534-8.534-8.534zM494.933 44.8h-119.466c-4.693 0-8.534 3.84-8.534 8.534s3.84 8.534 8.534 8.534h119.466c4.693 0 8.534-3.84 8.534-8.534s-3.84-8.534-8.534-8.534z" />
<glyph unicode="&#xea1b;" glyph-name="Laughing" d="M255.829-29.935c-114.534 0-215.279 77.329-245.009 188.075-17.596 65.502-8.618 133.939 25.242 192.683 33.877 58.743 88.593 100.779 154.078 118.375 21.641 5.803 43.827 8.755 66.014 8.755 114.5 0 215.313-77.346 245.026-188.075 17.579-65.485 8.618-133.905-25.241-192.649s-88.576-100.779-154.061-118.392c-21.64-5.82-43.844-8.772-66.048-8.772zM256.154 460.851c-20.685 0-41.404-2.748-61.577-8.175-61.099-16.401-112.128-55.62-143.719-110.421-31.608-54.784-39.953-118.63-23.552-179.712 27.75-103.27 121.737-175.428 228.557-175.428 20.668 0 41.404 2.748 61.594 8.175 61.082 16.401 112.111 55.603 143.719 110.421 31.608 54.801 39.97 118.613 23.552 179.678-27.767 103.322-121.753 175.462-228.574 175.462zM255.863 34.082c-85.641 0-160.99 57.856-183.227 140.663-6.826 25.413-6.912 39.322-0.307 47.94 8.397 10.94 25.43 8.892 53.163 2.543 20.446-4.694 45.875-10.53 75.639-10.53h0.017c19.114 0 37.273 2.373 55.398 7.253 53.777 14.439 87.313 45.688 111.752 68.488 16.709 15.599 27.767 25.907 39.885 25.907 17.203 0 25.139-20.719 31.163-43.093 13.159-48.982 6.434-100.165-18.858-144.077-25.327-43.947-66.27-75.384-115.234-88.542-16.162-4.335-32.751-6.536-49.391-6.553v0 0zM92.023 213.794c-2.27 0-5.189-0.256-6.144-1.502-1.263-1.656-3.481-8.175 3.225-33.109 20.258-75.366 88.832-128 166.758-128.017 0.017 0 0 0 0.017 0 15.121 0 30.225 2.014 44.954 5.974 44.561 11.964 81.8 40.601 104.875 80.589s29.133 86.562 17.186 131.141c-7.8 28.996-13.585 30.464-14.678 30.464-5.393 0-16.998-10.837-28.262-21.316-24.303-22.681-61.065-56.952-118.938-72.517-19.353-5.205-39.475-7.834-59.835-7.834h-0.017c-31.693 0-59.29 6.332-79.445 10.974-12.219 2.765-22.75 5.154-29.696 5.154zM97.16 272.197c-3.772 0-7.202 2.509-8.209 6.314-7.338 27.273 8.891 55.416 36.147 62.737 27.238 7.287 55.416-8.909 62.72-36.181 1.229-4.557-1.485-9.216-6.042-10.445-4.54-1.229-9.233 1.468-10.445 6.042-4.864 18.159-23.603 28.996-41.814 24.115-18.159-4.881-28.996-23.654-24.115-41.831 1.229-4.557-1.468-9.233-6.041-10.462-0.717-0.188-1.468-0.29-2.201-0.29zM282.607 321.997c-3.772 0-7.202 2.509-8.226 6.315-7.322 27.273 8.892 55.416 36.164 62.754 27.306 7.287 55.416-8.926 62.737-36.182 1.229-4.557-1.467-9.233-6.041-10.462-4.539-1.212-9.233 1.467-10.445 6.024-4.881 18.193-23.688 28.996-41.813 24.132-18.159-4.898-28.997-23.654-24.098-41.848 1.212-4.557-1.467-9.233-6.041-10.462-0.768-0.17-1.502-0.273-2.236-0.273z" />
<glyph unicode="&#xea3d;" glyph-name="Life-Jacket" d="M100.881-23.466h-66.748c-4.71 0-8.534 3.84-8.534 8.534v249.6c0 2.031 0.734 4.011 2.065 5.564 0.631 0.734 62.584 74.615 66.014 222.908 0.103 4.625 3.891 8.328 8.534 8.328h71.117c3.294 0 6.315-1.894 7.714-4.898l48.537-102.929c0.546-1.144 0.819-2.389 0.819-3.635v-252.007c0-71.271-59.341-131.464-129.519-131.464zM42.666-6.4h58.215c59.904 0 112.453 53.453 112.453 114.398v250.078l-45.431 96.325h-57.412c-5.12-135.8-56.559-208.435-67.823-222.771v-238.029zM477.866-23.466h-75.673c-67.635 0-120.593 57.754-120.593 131.464v252.007c0 1.058 0.171 2.082 0.563 3.072l39.611 102.929c1.28 3.294 4.454 5.462 7.987 5.462h71.1c4.625 0 8.431-3.704 8.534-8.329 3.447-148.514 73.831-221.764 74.547-222.481 1.587-1.605 2.457-3.755 2.457-5.99v-249.6c0-4.693-3.84-8.534-8.534-8.534zM298.666 358.417v-250.419c0-64.154 45.466-114.398 103.526-114.398h67.14v237.721c-13.005 14.575-71.356 87.296-76.731 223.078h-57.002l-36.933-95.983zM213.333 198.4h-170.667c-4.71 0-8.534 3.84-8.534 8.534s3.823 8.534 8.534 8.534h170.667c4.71 0 8.534-3.84 8.534-8.534s-3.84-8.534-8.534-8.534zM469.334 198.4h-170.666c-4.711 0-8.534 3.84-8.534 8.534s3.823 8.534 8.534 8.534h170.667c4.693 0 8.534-3.84 8.534-8.534s-3.84-8.534-8.534-8.534zM469.334 113.067h-170.666c-4.711 0-8.534 3.84-8.534 8.534s3.823 8.534 8.534 8.534h170.667c4.693 0 8.534-3.84 8.534-8.534s-3.84-8.534-8.534-8.534zM213.333 113.067h-170.667c-4.71 0-8.534 3.84-8.534 8.534s3.823 8.534 8.534 8.534h170.667c4.71 0 8.534-3.84 8.534-8.534s-3.84-8.534-8.534-8.534zM281.6 147.2h-51.2c-4.71 0-8.534 3.84-8.534 8.534s3.823 8.534 8.534 8.534h51.2c4.693 0 8.534-3.84 8.534-8.534s-3.84-8.534-8.534-8.534z" />
<glyph unicode="&#xea3e;" glyph-name="Life-Safer" d="M256-19.2c-134.093 0-243.2 109.107-243.2 243.2s109.107 243.2 243.2 243.2c134.076 0 243.2-109.107 243.2-243.2s-109.125-243.2-243.2-243.2zM256 450.134c-124.689 0-226.133-101.445-226.133-226.134 0-124.706 101.445-226.134 226.133-226.134s226.134 101.427 226.134 226.134c0 124.689-101.445 226.134-226.134 226.134zM256 87.466c-75.281 0-136.534 61.252-136.534 136.534s61.252 136.534 136.534 136.534c75.264 0 136.534-61.252 136.534-136.534s-61.269-136.534-136.534-136.534zM256 343.466c-65.877 0-119.466-53.589-119.466-119.466 0-65.861 53.589-119.466 119.466-119.466 65.861 0 119.466 53.606 119.466 119.466 0 65.877-53.606 119.466-119.466 119.466zM200.721 460.8h17.066v-119.466h-17.066v119.466zM311.654 332.8c-4.711 0-8.534 3.823-8.534 8.534v102.4c0 4.71 3.823 8.533 8.534 8.533s8.534-3.823 8.534-8.533v-102.4c0-4.71-3.823-8.534-8.534-8.534zM200.721 102.4h17.066v-102.4h-17.066v102.4zM303.121 102.4h17.067v-102.4h-17.067v102.4zM30.055 170.666h119.466v-17.067h-119.466v17.067zM132.454 273.067h-102.4c-4.71 0-8.534 3.823-8.534 8.534s3.823 8.534 8.534 8.534h102.4c4.71 0 8.534-3.823 8.534-8.534s-3.823-8.534-8.534-8.534zM473.788 153.6h-102.4c-4.711 0-8.534 3.84-8.534 8.534s3.823 8.534 8.534 8.534h102.4c4.711 0 8.534-3.84 8.534-8.534s-3.823-8.534-8.534-8.534zM371.387 290.134h119.466v-17.067h-119.466v17.067z" />
<glyph unicode="&#xea64;" glyph-name="Love-User" horiz-adv-x="615" d="M103.68 278.323c-1.451 0-2.918 0.375-4.233 1.127-83.644 47.803-100.249 93.065-99.43 122.641 0.956 34.543 24.576 57.429 35.857 63.061 9.916 4.95 19.456 7.458 28.416 7.458 17.784 0 31.335-9.848 39.424-23.483 8.106 13.654 21.657 23.483 39.441 23.483 8.926 0 18.5-2.509 28.399-7.458 11.298-5.649 34.901-28.518 35.857-63.078 0.802-29.577-15.786-74.838-99.43-122.641-1.382-0.734-2.85-1.11-4.301-1.11zM64.256 455.526c-6.264 0-13.243-1.911-20.77-5.666-6.52-3.26-25.686-21.487-26.419-48.298-0.956-34.85 28.962-71.066 86.597-104.892 57.634 33.826 87.552 70.024 86.579 104.892-0.734 26.794-19.899 45.022-26.419 48.298-7.475 3.755-14.489 5.666-20.753 5.666-21.299 0-30.907-22.238-30.907-38.024 0-4.711-3.823-8.534-8.534-8.534-4.694 0-8.534 3.823-8.534 8.534 0.051 15.803-9.54 38.024-30.84 38.024zM359.185 65.007c-60.433 0-94.106 65.075-96.58 128.955-15.224 3.123-35.021 13.738-35.021 28.911v42.666c0 14.046 20.565 23.159 34.133 27.648v36.352c0 40.106 19.183 60.894 57.019 61.832 32.12 22.033 63.283 33.656 90.334 33.656 25.753 0 46.95-10.769 58.214-29.56 11.469-19.114 11.127-44.39-0.768-68.010v-32.887c17.067-3.755 17.067-19.268 17.067-29.031v-42.666c0-14.455-16.452-25.6-31.163-28.86-2.134-63.539-31.522-129.007-93.235-129.007zM409.088 407.945c-16.793 0-44.834-5.564-82.722-32.085-1.433-1.007-3.158-1.536-4.898-1.536-29.901 0-42.666-13.397-42.666-44.8v-42.666c0-3.823-2.526-7.185-6.229-8.209-12.851-3.618-26.453-10.308-28.024-13.79l0.102-42.001c0-3.909 15.292-12.8 26.334-12.8 4.711 0 8.534-3.857 8.534-8.534 0-57.959 27.921-119.466 79.65-119.466 55.978 0 76.322 71.458 76.322 119.466 0 4.676 3.84 8.534 8.534 8.534 9.694 0 22.477 8.055 22.477 12.8v42.666c0 12.442-0.256 12.8-8.534 12.8-4.676 0-8.534 3.823-8.534 8.534v42.666c0 1.399 0.358 2.782 1.024 4.010 10.206 19.115 11.008 38.469 2.202 53.129-8.226 13.704-23.706 21.282-43.571 21.282zM114.347-24.593c-4.71 0-8.534 3.823-8.534 8.534 0 59.99 46.285 100.267 115.2 100.267h27.341l29.047 45.295c2.526 3.925 7.817 5.137 11.793 2.56 3.942-2.526 5.12-7.817 2.56-11.793l-31.574-49.238c-1.587-2.474-4.267-3.909-7.185-3.909h-31.983c-48.845 0-98.133-25.736-98.133-83.2 0-4.728-3.823-8.517-8.534-8.517zM604.569-24.593c-4.677 0-8.534 3.823-8.534 8.534 0 57.464-49.288 83.2-98.134 83.2h-32c-2.901 0-5.615 1.467-7.185 3.909l-31.574 49.238c-2.543 3.959-1.399 9.267 2.543 11.793 3.959 2.509 9.25 1.399 11.793-2.56l29.014-45.295h27.375c68.915 0 115.2-40.277 115.2-100.267 0.034-4.762-3.789-8.55-8.499-8.55z" />
<glyph unicode="&#xea71;" glyph-name="Mail-3" d="M460.8 53.334h-409.6c-28.229 0-51.2 22.971-51.2 51.2v238.933c0 28.229 22.971 51.2 51.2 51.2h409.6c28.228 0 51.2-22.971 51.2-51.2v-238.933c0-28.228-22.971-51.2-51.2-51.2zM51.2 377.6c-18.825 0-34.133-15.309-34.133-34.134v-238.933c0-18.841 15.309-34.134 34.133-34.134h409.6c18.841 0 34.133 15.291 34.133 34.134v238.933c0 18.825-15.291 34.134-34.134 34.134h-409.6zM435.2 224h-85.334c-4.693 0-8.534 3.823-8.534 8.534v85.334c0 4.71 3.84 8.534 8.534 8.534h85.334c4.694 0 8.534-3.823 8.534-8.534v-85.334c0-4.71-3.84-8.534-8.534-8.534zM358.4 241.066h68.267v68.266h-68.267v-68.267zM170.667 155.733h-85.334c-4.71 0-8.534 3.84-8.534 8.534s3.823 8.534 8.534 8.534h85.334c4.71 0 8.534-3.84 8.534-8.534s-3.823-8.534-8.534-8.534zM221.867 121.6h-136.534c-4.71 0-8.534 3.84-8.534 8.534s3.823 8.534 8.534 8.534h136.534c4.71 0 8.534-3.84 8.534-8.534s-3.823-8.534-8.534-8.534z" />
<glyph unicode="&#xeaa8;" glyph-name="Medical-Sign" d="M256 346.658c-34.117 0-61.867 27.75-61.867 61.866s27.75 61.866 61.867 61.866 61.866-27.75 61.866-61.866-27.75-61.866-61.867-61.866zM256 453.325c-24.696 0-44.8-20.104-44.8-44.8s20.105-44.8 44.8-44.8 44.8 20.104 44.8 44.8-20.104 44.8-44.8 44.8zM254.054-22.409c-4.71 0-8.534 3.84-8.534 8.534v358.4c0 4.711 3.823 8.534 8.534 8.534s8.533-3.823 8.533-8.534v-358.4c0-4.693-3.823-8.534-8.534-8.534zM288 5.325c-3.857 0-93.867 0.58-93.867 51.2 0 27.119 29.85 39.048 58.675 50.603 23.586 9.421 47.991 19.183 47.991 34.731s-24.406 25.293-47.992 34.748c-28.843 11.537-58.675 23.466-58.675 50.585 0 37.206 27.904 47.411 57.464 58.232 10.615 3.891 21.589 7.902 32.597 13.398 37.974 18.978 37.974 34.969 37.974 77.704 0 4.711 3.823 8.534 8.534 8.534 4.694 0 8.534-3.823 8.534-8.534 0-43.195 0-69.273-47.377-92.962-11.861-5.939-23.825-10.308-34.355-14.183-31.249-11.418-46.25-18.006-46.25-42.206 0-15.565 24.388-25.31 47.974-34.731 28.86-11.571 58.692-23.501 58.692-50.603 0-27.136-29.849-39.065-58.692-50.603-23.586-9.438-47.975-19.2-47.975-34.731 0-33.195 76.032-34.134 76.8-34.134 4.693 0 8.534-3.84 8.534-8.534-0.017-4.693-3.891-8.517-8.584-8.517zM232.363 5.325c-4.71 0-8.534 3.84-8.534 8.534s3.823 8.534 8.534 8.534c0.683 0 68.438 1.041 68.438 34.133 0 15.548-24.406 25.293-47.992 34.748-28.843 11.537-58.675 23.466-58.675 50.586s29.85 39.048 58.675 50.603c23.586 9.421 47.992 19.183 47.992 34.731 0 25.464-13.005 31.71-42.411 43.418-8.977 3.567-19.166 7.611-29.833 12.953-47.411 23.706-55.757 48.862-55.757 92.962 0 4.711 3.823 8.534 8.534 8.534s8.534-3.823 8.534-8.534c0-40.243 6.998-58.026 46.319-77.704 10.001-5 19.405-8.738 28.502-12.373 28.536-11.35 53.18-21.146 53.18-59.273 0-27.119-29.866-39.048-58.692-50.586-23.586-9.455-47.975-19.2-47.975-34.748s24.388-25.293 47.975-34.731c28.86-11.554 58.692-23.483 58.692-50.603 0-50.586-82.005-51.183-85.504-51.183zM138.667 278.392c-0.905 0-1.809 0.137-2.696 0.444-132.301 44.1-133.837 122.129-133.837 125.423 0 4.71 3.823 8.534 8.534 8.534h149.333c3.106 0 5.957-1.69 7.475-4.403 1.485-2.697 1.417-6.008-0.239-8.635-20.275-32.444-40.278-70.298-20.941-109.005 1.536-3.089 1.075-6.793-1.178-9.404-1.655-1.878-4.028-2.952-6.451-2.952zM20.412 395.725c4.165-18.466 22.528-62.703 103.817-94.515-9.403 36.471 6.605 70.724 20.565 94.515h-124.382zM373.334 278.392c-2.457 0-4.796 1.058-6.451 2.952-2.253 2.594-2.731 6.315-1.178 9.404 19.353 38.707-0.666 76.544-20.941 109.005-1.673 2.628-1.758 5.939-0.256 8.653s4.386 4.403 7.475 4.403h149.333c4.693 0 8.534-3.823 8.534-8.534 0-3.294-1.536-81.322-133.837-125.423-0.887-0.324-1.775-0.461-2.68-0.461zM367.207 395.725c13.961-23.791 29.952-58.043 20.565-94.515 81.238 31.778 99.635 75.998 103.817 94.515h-124.382z" />
<glyph unicode="&#xeb10;" glyph-name="Nurse" d="M362.752 36.539c-3.635 0-7.014 2.355-8.175 6.024-1.399 4.488 1.11 9.284 5.615 10.683 59.529 18.551 107.144 55.552 131.43 101.939-10.582 18.363-52.736 92.723-59.955 123.955-10.599 45.944-23.603 79.497-40.926 105.575-2.594 3.925-1.536 9.233 2.406 11.827 3.909 2.594 9.216 1.553 11.81-2.389 18.5-27.836 32.29-63.163 43.349-111.19 7.493-32.495 59.853-122.282 60.382-123.187 1.433-2.491 1.553-5.478 0.325-8.055-25.634-52.463-78.012-94.276-143.719-114.791-0.853-0.273-1.69-0.392-2.543-0.392zM146.023 36.539c-0.819 0-1.655 0.137-2.492 0.358-65.775 19.951-113.067 58.573-140.527 114.808-1.246 2.543-1.143 5.563 0.307 8.055 0.529 0.921 52.907 90.675 60.382 123.187 10.309 44.544 34.543 93.832 54.033 122.897 2.629 3.909 7.919 4.966 11.845 2.338 3.891-2.611 4.966-7.919 2.338-11.827-22.033-32.853-43.23-81.067-51.559-117.231-7.219-31.249-49.391-105.608-59.972-123.955 25.583-49.596 68.659-83.865 128.154-101.922 4.506-1.365 7.066-6.11 5.683-10.649-1.143-3.704-4.523-6.058-8.192-6.058zM252.809-29.866c-97.382 0-170.667 141.738-170.667 233.608v35.209c0 4.71 3.84 8.534 8.534 8.534 4.71 0 8.534-3.823 8.534-8.534v-35.209c0-85.521 68.813-216.542 153.6-216.542s153.6 131.038 153.6 216.542v35.209c0 4.71 3.84 8.534 8.534 8.534 4.711 0 8.534-3.823 8.534-8.534v-35.209c0-91.87-73.284-233.608-170.667-233.608zM90.675 230.4c-4.694 0-8.534 3.823-8.534 8.534s3.84 8.534 8.534 8.534c56.183 0 104.346 61.576 104.346 112.008 0 4.711 3.823 8.534 8.534 8.534 4.694 0 8.534-3.823 8.534-8.534 0-58.471-54.169-129.075-121.412-129.075zM414.942 233.063c-125.866 0-219.921 66.731-219.921 126.395 0 4.711 3.823 8.534 8.534 8.534 4.694 0 8.534-3.823 8.534-8.534 0-43.52 80.913-109.329 202.854-109.329 4.711 0 8.534-3.823 8.534-8.534s-3.823-8.534-8.534-8.534zM397.875 358.4h-273.067c-4.694 0-8.534 3.823-8.534 8.534v102.4c0 4.711 3.84 8.534 8.534 8.534h273.067c4.711 0 8.534-3.823 8.534-8.534v-102.4c0-4.71-3.823-8.534-8.534-8.534zM133.342 375.466h256v85.334h-256v-85.334z" />
<glyph unicode="&#xeb39;" glyph-name="Pantone" d="M205.875-32h-59.733c-39.987 0-72.534 32.529-72.534 72.534v366.933c0 40.005 32.563 72.534 72.534 72.534h59.733c39.987 0 72.534-32.529 72.534-72.534v-366.933c0-40.005-32.546-72.534-72.534-72.534zM146.142 462.933c-30.584 0-55.466-24.883-55.466-55.466v-366.933c0-30.584 24.883-55.466 55.466-55.466h59.733c30.584 0 55.466 24.883 55.466 55.466v366.933c0 30.584-24.883 55.466-55.466 55.466h-59.733zM235.742-25.685c-3.891 0-7.407 2.68-8.311 6.656-1.058 4.591 1.826 9.165 6.417 10.223l63.676 14.558c14.524 3.14 26.897 11.725 34.952 24.2 8.055 12.493 10.786 27.324 7.68 41.711l-76.68 345.31c-1.024 4.608 1.877 9.165 6.486 10.189s9.165-1.877 10.189-6.486l76.697-345.378c4.079-18.893 0.512-38.298-10.018-54.596-10.53-16.333-26.709-27.563-45.602-31.642l-63.608-14.541c-0.597-0.137-1.229-0.205-1.877-0.205zM319.813-2.833c-3.277 0-6.451 1.928-7.834 5.171-1.843 4.335 0.154 9.37 4.488 11.23l73.642 31.642c27.272 13.073 38.998 46.233 25.839 73.814l-157.082 310.101c-2.134 4.216-0.426 9.336 3.772 11.469 4.233 2.151 9.336 0.444 11.469-3.755l157.15-310.289c17.322-36.25 1.979-79.633-34.099-96.887l-73.967-31.778c-1.092-0.478-2.236-0.717-3.379-0.717zM235.742 36.267h-119.466c-4.694 0-8.534 3.84-8.534 8.534v68.267c0 4.693 3.84 8.534 8.534 8.534h119.466c4.71 0 8.534-3.84 8.534-8.534v-68.267c0-4.694-3.806-8.534-8.534-8.534zM124.808 53.334h102.4v51.2h-102.4v-51.2zM235.742 155.733h-119.466c-4.694 0-8.534 3.84-8.534 8.534v68.267c0 4.71 3.84 8.534 8.534 8.534h119.466c4.71 0 8.534-3.823 8.534-8.534v-68.267c0-4.694-3.806-8.534-8.534-8.534zM124.808 172.8h102.4v51.2h-102.4v-51.2zM235.742 275.2h-119.466c-4.694 0-8.534 3.823-8.534 8.534v68.267c0 4.711 3.84 8.534 8.534 8.534h119.466c4.71 0 8.534-3.823 8.534-8.534v-68.267c0-4.71-3.806-8.534-8.534-8.534zM124.808 292.267h102.4v51.2h-102.4v-51.2zM175.838 388.933c-16.47 0-29.867 13.398-29.867 29.866s13.398 29.867 29.867 29.867 29.867-13.397 29.867-29.867-13.398-29.866-29.867-29.866zM175.838 431.599c-7.066 0-12.8-5.734-12.8-12.8s5.734-12.8 12.8-12.8 12.8 5.734 12.8 12.8-5.751 12.8-12.8 12.8z" />
<glyph unicode="&#xeb4d;" glyph-name="Pen" d="M39.867-0.426c-2.202 0-4.386 0.837-6.041 2.491-2.645 2.611-3.259 6.69-1.536 9.984l65.724 126.106c0.409 0.768 0.921 1.467 1.536 2.099l287.659 287.625c23.637 23.671 61.252 27.563 80.623 8.192 19.934-19.951 16.264-56.115-8.192-80.589l-287.675-287.642c-0.597-0.632-1.314-1.127-2.082-1.536l-126.072-65.775c-1.246-0.649-2.594-0.955-3.943-0.955zM112.572 129.058l-52.583-100.864 100.847 52.599 286.754 286.754c17.817 17.817 21.487 43.161 8.175 56.457-12.902 12.902-39.236 9.046-56.474-8.192l-286.72-286.754zM185.19 99.464l-60.314 60.313 12.066 12.066 60.314-60.313-12.066-12.066zM198.673 279.040c-2.185 0-4.369 0.837-6.042 2.492-3.328 3.328-3.328 8.738 0 12.066l128.222 128.239c3.209 3.209 8.892 3.209 12.066 0l98.048-98.082c3.328-3.328 3.328-8.738 0-12.066s-8.738-3.328-12.066 0l-92.041 92.058-122.197-122.197c-1.638-1.673-3.806-2.509-5.99-2.509z" />
<glyph unicode="&#xeb5e;" glyph-name="Phone-Wifi" d="M252.894-32h-209.066c-22.358 0-40.533 18.159-40.533 40.534v430.933c0 22.358 18.176 40.534 40.533 40.534h209.066c22.375 0 40.534-18.176 40.534-40.534v-430.933c0-22.375-18.159-40.534-40.534-40.534zM43.827 462.933c-12.919 0-23.466-10.53-23.466-23.466v-430.933c0-12.937 10.547-23.466 23.466-23.466h209.066c12.936 0 23.467 10.53 23.467 23.466v430.933c0 12.937-10.53 23.466-23.466 23.466h-209.066zM276.361 377.6h-256c-4.71 0-8.534 3.823-8.534 8.534s3.823 8.534 8.534 8.534h256c4.693 0 8.534-3.823 8.534-8.534s-3.823-8.534-8.534-8.534zM148.207 420.267c-2.219 0-4.438 0.853-6.144 2.56-1.536 1.536-2.389 3.755-2.389 5.974s0.853 4.438 2.389 5.974c3.413 3.243 9.046 3.243 12.118 0 1.707-1.536 2.56-3.755 2.56-5.974s-0.853-4.438-2.56-5.974c-1.553-1.707-3.772-2.56-5.974-2.56zM276.361 53.334h-256c-4.71 0-8.534 3.84-8.534 8.534s3.823 8.534 8.534 8.534h256c4.693 0 8.534-3.84 8.534-8.534s-3.823-8.534-8.534-8.534zM500.173 292.267c-4.693 0-8.534 3.823-8.534 8.534 0 89.395-72.738 162.133-162.134 162.133-4.693 0-8.534 3.823-8.534 8.534s3.84 8.534 8.534 8.534c98.833 0 179.2-80.384 179.2-179.2 0-4.711-3.806-8.534-8.534-8.534zM372.173 292.267c-4.693 0-8.534 3.823-8.534 8.534 0 18.825-15.291 34.133-34.134 34.133-4.693 0-8.534 3.823-8.534 8.534s3.84 8.534 8.534 8.534c28.228 0 51.2-22.971 51.2-51.2 0-4.71-3.806-8.534-8.534-8.534zM436.173 292.267c-4.693 0-8.534 3.823-8.534 8.534 0 54.118-44.032 98.133-98.134 98.133-4.693 0-8.534 3.823-8.534 8.534s3.84 8.534 8.534 8.534c63.539 0 115.2-51.678 115.2-115.2 0-4.71-3.806-8.534-8.534-8.534zM173.96 19.2h-51.2c-4.71 0-8.534 3.84-8.534 8.534s3.823 8.534 8.534 8.534h51.2c4.71 0 8.534-3.84 8.534-8.534s-3.823-8.534-8.534-8.534z" />
<glyph unicode="&#xeb94;" glyph-name="Post-Mail2" d="M426.666 322.134h-119.466c-4.694 0-8.534 3.823-8.534 8.534s3.84 8.534 8.534 8.534h119.466c4.694 0 8.534-3.823 8.534-8.534s-3.84-8.534-8.534-8.534zM25.6-27.733c-4.71 0-8.534 3.84-8.534 8.534v68.267c0 4.693 3.823 8.534 8.534 8.534s8.533-3.84 8.533-8.534v-68.267c0-4.694-3.823-8.534-8.534-8.534zM247.466-27.733c-4.71 0-8.534 3.84-8.534 8.534v68.267c0 4.693 3.823 8.534 8.534 8.534s8.534-3.84 8.534-8.534v-68.267c0-4.694-3.823-8.534-8.534-8.534zM486.4-27.733c-4.693 0-8.534 3.84-8.534 8.534v68.267c0 4.693 3.84 8.534 8.534 8.534s8.534-3.84 8.534-8.534v-68.267c0-4.694-3.84-8.534-8.534-8.534zM452.267 134.4h-153.6c-4.693 0-8.534 3.84-8.534 8.534v136.534c0 4.711 3.84 8.534 8.534 8.534h153.6c4.693 0 8.534-3.823 8.534-8.534v-136.534c0-4.693-3.84-8.534-8.534-8.534zM307.2 151.466h136.534v119.466h-136.534v-119.466zM247.466 32h-221.867c-4.71 0-8.534 3.84-8.534 8.534v309.334c0 71.748 51.353 125.867 119.466 125.867s119.466-54.102 119.466-125.867v-309.334c0-4.693-3.823-8.534-8.534-8.534zM34.133 49.067h204.8v300.8c0 62.021-44.032 108.8-102.4 108.8s-102.4-46.763-102.4-108.8v-300.8zM486.4 32h-247.466c-4.71 0-8.534 3.84-8.534 8.534s3.823 8.534 8.534 8.534h238.933v300.8c0 58.983-51.37 108.8-112.197 108.8h-229.137c-4.71 0-8.534 3.823-8.534 8.534s3.823 8.534 8.534 8.534h229.137c70.058 0 129.263-57.634 129.263-125.867v-309.334c0-4.693-3.84-8.534-8.534-8.534zM213.333 202.666h-153.6c-4.71 0-8.534 3.84-8.534 8.534v136.534c0 4.71 3.823 8.534 8.534 8.534h153.6c4.71 0 8.534-3.823 8.534-8.534v-136.534c0-4.694-3.823-8.534-8.534-8.534zM68.266 219.733h136.534v119.466h-136.534v-119.466zM136.345 266.667c-1.98 0-3.959 0.683-5.547 2.048l-74.666 64c-3.584 3.072-3.993 8.465-0.922 12.032 3.072 3.584 8.465 3.993 12.032 0.939l69.12-59.239 69.12 59.238c3.584 3.055 8.96 2.646 12.032-0.939 3.072-3.567 2.662-8.96-0.922-12.032l-74.666-64c-1.621-1.365-3.618-2.048-5.581-2.048z" />
<glyph unicode="&#xeba5;" glyph-name="Preview" d="M260.062 112.469c-79.889 0-152.627 40.841-194.662 109.192-1.706 2.748-1.706 6.195 0 8.926 42.035 68.352 114.841 109.159 194.662 109.159 79.872 0 152.627-40.807 194.697-109.159 1.69-2.748 1.69-6.195 0-8.926-42.018-68.369-114.808-109.192-194.697-109.192zM82.757 226.133c39.322-60.586 105.182-96.614 177.339-96.614s138.053 36.010 177.339 96.615c-39.305 60.57-105.199 96.563-177.339 96.563-72.141 0.017-138.035-35.993-177.339-96.563zM260.062 160.051c-36.454 0-66.065 29.645-66.065 66.082 0 36.421 29.627 66.065 66.065 66.065s66.082-29.645 66.082-66.065c0-36.438-29.645-66.082-66.082-66.082zM260.062 275.149c-27.017 0-48.999-21.982-48.999-48.999s21.982-49.016 48.999-49.016c27.034 0 49.015 21.999 49.015 49.016s-21.982 48.999-49.015 48.999zM342.067 128.307c-2.304 0-4.608 0.938-6.298 2.765-3.192 3.481-2.952 8.892 0.512 12.066 23.142 21.282 36.454 51.558 36.454 83.012s-13.312 61.747-36.539 83.063c-3.464 3.192-3.704 8.585-0.495 12.049 3.209 3.482 8.584 3.704 12.049 0.512 26.709-24.525 42.053-59.392 42.053-95.625 0-36.25-15.291-71.1-41.967-95.591-1.639-1.502-3.704-2.253-5.769-2.253zM178.176 128.273c-2.065 0-4.13 0.734-5.786 2.236-26.692 24.525-42.053 59.375-42.053 95.642 0 36.233 15.291 71.082 42.001 95.591 3.464 3.191 8.892 2.969 12.066-0.512 3.208-3.464 2.952-8.892-0.495-12.049-23.177-21.299-36.505-51.559-36.505-83.030 0-31.505 13.295-61.781 36.54-83.080 3.482-3.192 3.72-8.584 0.495-12.049-1.638-1.861-3.942-2.748-6.263-2.748zM503.466-32h-494.933c-4.71 0-8.534 3.84-8.534 8.534v494.933c0 4.711 3.823 8.534 8.534 8.534h494.933c4.711 0 8.534-3.823 8.534-8.534v-494.933c0-4.693-3.823-8.534-8.534-8.534zM17.067-14.933h477.866v477.866h-477.866v-477.866z" />
<glyph unicode="&#xebfe;" glyph-name="Road-3" d="M399.087-32c-0.103 0-0.222 0-0.358 0h-256c-2.458 0-4.796 1.075-6.4 2.901-1.621 1.826-2.373 4.267-2.065 6.741l64 494.933c0.563 4.233 4.198 7.424 8.482 7.424h110.933c4.199 0 7.765-3.038 8.431-7.151l80.709-492.663c0.529-1.092 0.837-2.355 0.837-3.67-0.034-4.693-3.857-8.516-8.567-8.516zM152.457-14.933h236.237l-78.267 477.866h-96.171l-61.798-477.866zM264.534 445.866c-4.711 0-8.534 3.823-8.534 8.534v8.534c0 4.711 3.823 8.534 8.534 8.534 4.693 0 8.534-3.84 8.534-8.534v-8.534c0-4.71-3.84-8.534-8.534-8.534zM264.534 292.267c-4.711 0-8.534 3.823-8.534 8.534v17.066c0 4.694 3.823 8.534 8.534 8.534 4.693 0 8.534-3.84 8.534-8.534v-17.066c0-4.71-3.84-8.534-8.534-8.534zM264.534 343.466c-4.711 0-8.534 3.823-8.534 8.534v17.067c0 4.693 3.823 8.534 8.534 8.534 4.693 0 8.534-3.84 8.534-8.534v-17.067c0-4.711-3.84-8.534-8.534-8.534zM264.534 394.666c-4.711 0-8.534 3.823-8.534 8.534v17.067c0 4.694 3.823 8.534 8.534 8.534 4.693 0 8.534-3.84 8.534-8.534v-17.067c0-4.71-3.84-8.534-8.534-8.534zM264.534 249.6c-4.711 0-8.534 3.823-8.534 8.534v8.534c0 4.71 3.823 8.534 8.534 8.534 4.693 0 8.534-3.823 8.534-8.534v-8.534c0-4.711-3.84-8.534-8.534-8.534zM264.534-23.466c-4.711 0-8.534 3.823-8.534 8.534v17.067c0 4.693 3.823 8.534 8.534 8.534 4.693 0 8.534-3.84 8.534-8.534v-17.067c0-4.711-3.84-8.534-8.534-8.534zM264.534 27.733c-4.711 0-8.534 3.823-8.534 8.534v17.067c0 4.694 3.823 8.534 8.534 8.534 4.693 0 8.534-3.84 8.534-8.534v-17.067c0-4.711-3.84-8.534-8.534-8.534zM264.534 78.933c-4.711 0-8.534 3.823-8.534 8.534v17.067c0 4.693 3.823 8.534 8.534 8.534 4.693 0 8.534-3.84 8.534-8.534v-17.067c0-4.711-3.84-8.534-8.534-8.534zM264.534 130.134c-4.711 0-8.534 3.823-8.534 8.534v17.067c0 4.693 3.823 8.534 8.534 8.534 4.693 0 8.534-3.84 8.534-8.534v-17.067c0-4.711-3.84-8.534-8.534-8.534zM264.534 181.334c-4.711 0-8.534 3.823-8.534 8.534v17.067c0 4.694 3.823 8.534 8.534 8.534 4.693 0 8.534-3.84 8.534-8.534v-17.067c0-4.711-3.84-8.534-8.534-8.534zM494.933 206.933h-477.866c-4.71 0-8.534 3.823-8.534 8.534 0 4.693 3.823 8.534 8.534 8.534h477.866c4.693 0 8.534-3.823 8.534-8.534s-3.84-8.534-8.534-8.534zM494.933 241.066h-477.866c-4.71 0-8.534 3.823-8.534 8.534s3.823 8.534 8.534 8.534h477.866c4.693 0 8.534-3.823 8.534-8.534s-3.84-8.534-8.534-8.534zM109.415 132.267c-0.888 0-1.792 0.137-2.697 0.426-4.472 1.485-6.878 6.315-5.393 10.786l21.999 65.979c1.485 4.471 6.297 6.878 10.786 5.393 4.471-1.502 6.878-6.332 5.393-10.803l-21.999-65.963c-1.195-3.55-4.522-5.82-8.090-5.82zM430.080 132.267c-3.567 0-6.895 2.236-8.089 5.837l-21.999 65.963c-1.502 4.471 0.921 9.301 5.376 10.803 4.522 1.467 9.301-0.955 10.786-5.393l21.999-65.979c1.485-4.488-0.921-9.301-5.393-10.786-0.887-0.307-1.792-0.443-2.68-0.443z" />
<glyph unicode="&#xec65;" glyph-name="Sidebar-Window" d="M503.466 10.666h-494.933c-4.71 0-8.534 3.84-8.534 8.534v409.6c0 4.71 3.823 8.534 8.534 8.534h494.933c4.693 0 8.534-3.823 8.534-8.534v-409.6c0-4.694-3.84-8.534-8.534-8.534zM17.067 27.733h477.866v392.534h-477.866v-392.534zM494.933 334.933h-477.866c-4.71 0-8.534 3.823-8.534 8.534s3.823 8.534 8.534 8.534h477.866c4.693 0 8.534-3.823 8.534-8.534s-3.84-8.534-8.534-8.534zM349.866 19.2c-4.693 0-8.534 3.84-8.534 8.534v307.2c0 4.711 3.84 8.534 8.534 8.534s8.534-3.823 8.534-8.534v-307.2c0-4.694-3.84-8.534-8.534-8.534zM443.733 215.466h-34.133c-4.693 0-8.534 3.823-8.534 8.534s3.84 8.534 8.534 8.534h34.134c4.693 0 8.534-3.823 8.534-8.534s-3.84-8.534-8.534-8.534zM443.733 249.6h-34.133c-4.693 0-8.534 3.823-8.534 8.534s3.84 8.534 8.534 8.534h34.134c4.693 0 8.534-3.823 8.534-8.534s-3.84-8.534-8.534-8.534zM443.733 181.334h-34.133c-4.693 0-8.534 3.84-8.534 8.534s3.84 8.534 8.534 8.534h34.134c4.693 0 8.534-3.84 8.534-8.534s-3.84-8.534-8.534-8.534zM443.733 147.2h-34.133c-4.693 0-8.534 3.84-8.534 8.534s3.84 8.534 8.534 8.534h34.134c4.693 0 8.534-3.84 8.534-8.534s-3.84-8.534-8.534-8.534zM443.733 113.067h-34.133c-4.693 0-8.534 3.84-8.534 8.534s3.84 8.534 8.534 8.534h34.134c4.693 0 8.534-3.84 8.534-8.534s-3.84-8.534-8.534-8.534zM443.733 78.933h-34.133c-4.693 0-8.534 3.84-8.534 8.534s3.84 8.534 8.534 8.534h34.134c4.693 0 8.534-3.84 8.534-8.534s-3.84-8.534-8.534-8.534zM68.079 381.866c0-5.888-4.779-10.666-10.666-10.666s-10.666 4.779-10.666 10.666c0 5.888 4.779 10.667 10.666 10.667s10.666-4.779 10.666-10.667zM110.746 381.866c0-5.888-4.778-10.666-10.666-10.666s-10.666 4.779-10.666 10.666c0 5.888 4.778 10.667 10.666 10.667s10.666-4.779 10.666-10.667zM153.412 381.866c0-5.888-4.779-10.666-10.667-10.666s-10.666 4.779-10.666 10.666c0 5.888 4.779 10.667 10.666 10.667s10.666-4.779 10.666-10.667z" />
<glyph unicode="&#xecbc;" glyph-name="Sport-Mode" d="M499.2 29.764h-190.021c-2.219 0-4.386 0.87-5.957 2.44l-272.009 265.182c-1.672 1.638-2.611 3.891-2.577 6.229s1.041 4.574 2.747 6.144c0.802 0.751 81.118 74.94 94.362 88.184 16.776 16.776 31.675 20.292 41.216 20.292 10.838 0 20.992-4.505 28.587-12.697 9.66-10.41 14.489-25.702 13.261-41.967-1.041-13.5 4.54-26.931 16.554-39.885 24.507-26.437 68.455-42.803 95.095-42.803l2.663 0.051c3.533 0.069 6.724-1.843 8.158-5.017 7.288-16.179 18.245-44.049 29.849-73.591 9.13-23.262 18.893-48.060 28.041-70.161h56.507c33.656 0 62.089-31.3 62.089-68.301v-25.566c-0.034-4.694-3.874-8.534-8.567-8.534zM312.661 46.831h178.006v17.033c0 24.73-18.108 51.234-45.039 51.234h-62.191c-3.413 0-6.553 2.065-7.868 5.274-9.779 23.466-20.377 50.534-30.31 75.759-10.377 26.385-20.275 51.473-27.324 67.738-30.976 0.938-77.858 18.825-105.113 48.231-15.155 16.35-22.442 34.594-21.060 52.753 0.853 11.367-2.423 22.238-8.755 29.082-3.072 3.294-8.345 7.237-16.077 7.237-9.046 0-19.131-5.291-29.15-15.292-11.35-11.366-68.505-64.307-88.234-82.551l263.117-256.495zM499.968 66.338l-184.798 0.034-253.406 254.293 12.083 12.049 248.405-249.276 177.715-0.034zM210.978 174.097c-3.464 0-6.758 2.134-8.005 5.563-1.638 4.438 0.614 9.336 5.035 10.974l130.287 48.214c4.438 1.621 9.336-0.631 10.957-5.052 1.656-4.421-0.615-9.319-5.034-10.974l-130.287-48.197c-0.973-0.358-1.98-0.529-2.952-0.529zM241.135 143.94c-3.499 0-6.775 2.168-8.022 5.632-1.605 4.438 0.7 9.336 5.137 10.957l114.586 41.25c4.438 1.622 9.336-0.717 10.94-5.137 1.622-4.454-0.7-9.336-5.137-10.94l-114.603-41.267c-0.956-0.341-1.929-0.495-2.901-0.495zM271.291 113.75c-3.43 0-6.707 2.099-7.987 5.512-1.673 4.421 0.546 9.336 4.966 11.008l90.214 34.935c4.421 1.707 9.319-0.529 11.025-4.933 1.69-4.403-0.529-9.336-4.966-11.025l-90.197-34.935c-1.007-0.375-2.031-0.563-3.055-0.563zM64 166.298h-51.2c-4.71 0-8.534 3.84-8.534 8.534s3.823 8.534 8.534 8.534h51.2c4.71 0 8.534-3.84 8.534-8.534s-3.823-8.534-8.534-8.534zM98.133 132.164h-85.334c-4.71 0-8.534 3.84-8.534 8.534s3.823 8.534 8.534 8.534h85.334c4.71 0 8.534-3.84 8.534-8.534s-3.823-8.534-8.534-8.534zM149.333 98.031h-136.534c-4.71 0-8.534 3.84-8.534 8.534s3.823 8.534 8.534 8.534h136.534c4.71 0 8.534-3.84 8.534-8.534s-3.823-8.534-8.534-8.534z" />
<glyph unicode="&#xed1a;" glyph-name="Target-Market" d="M256-19.2c-134.093 0-243.2 109.107-243.2 243.2s109.090 243.2 243.2 243.2c134.093 0 243.2-109.107 243.2-243.2s-109.107-243.2-243.2-243.2zM256 450.134c-124.689 0-226.133-101.445-226.133-226.134 0-124.706 101.445-226.134 226.133-226.134 124.706 0 226.134 101.427 226.134 226.134 0 124.689-101.427 226.134-226.134 226.134zM253.525 402.791c-4.71 0-8.534 3.823-8.534 8.534v34.133c0 4.711 3.823 8.534 8.534 8.534s8.533-3.823 8.533-8.534v-34.133c0-4.711-3.823-8.534-8.534-8.534zM253.525-6.793c-4.71 0-8.534 3.84-8.534 8.534v34.134c0 4.693 3.823 8.534 8.534 8.534s8.533-3.84 8.533-8.534v-34.134c0-4.728-3.823-8.534-8.534-8.534zM74.326 206.541h-51.2c-4.71 0-8.534 3.84-8.534 8.534s3.823 8.534 8.534 8.534h51.2c4.71 0 8.534-3.823 8.534-8.534s-3.823-8.534-8.534-8.534zM483.925 206.541h-51.2c-4.711 0-8.534 3.84-8.534 8.534s3.823 8.534 8.534 8.534h51.2c4.676 0 8.534-3.823 8.534-8.534s-3.823-8.534-8.534-8.534zM256 143.036c-53.589 0-91.204 86.835-91.204 133.871 0 50.295 40.909 91.204 91.204 91.204s91.187-40.891 91.187-91.204c0.017-47.019-37.581-133.871-91.187-133.871zM256 351.044c-40.892 0-74.137-33.246-74.137-74.137 0-43.929 35.909-116.805 74.137-116.805s74.12 72.875 74.12 116.805c0.017 40.892-33.246 74.137-74.12 74.137zM140.8 78.541c-4.71 0-8.534 3.84-8.534 8.534v23.637c0 32.887 27.034 61.696 57.856 61.696h27.477c4.694 0 8.534-3.84 8.534-8.534s-3.84-8.534-8.534-8.534h-27.477c-21.351 0-40.79-21.299-40.79-44.63v-23.637c0-4.728-3.84-8.534-8.534-8.534zM362.666 87.074v23.637c0 23.33-19.456 44.63-40.806 44.63h-27.461c-4.711 0-8.534 3.84-8.534 8.534s3.823 8.534 8.534 8.534h27.461c30.839 0 57.873-28.808 57.873-61.696v-23.637c0-4.694-3.84-8.534-8.534-8.534-4.711 0-8.534 3.806-8.534 8.534z" />
<glyph unicode="&#xed34;" glyph-name="Text-Effect" d="M112.248-2.373c-0.973 0-1.945 0.171-2.901 0.512-4.438 1.587-6.742 6.486-5.12 10.923l42.599 117.863c1.229 3.379 4.438 5.632 8.022 5.632h98.321c4.71 0 8.533-3.84 8.533-8.534s-3.823-8.534-8.534-8.534h-92.331l-40.55-112.231c-1.263-3.464-4.54-5.632-8.038-5.632zM176.726 185.43c-0.887 0-1.792 0.171-2.696 0.426-4.471 1.502-6.878 6.332-5.393 10.803l47.274 141.755c1.485 4.471 6.263 6.912 10.786 5.393 4.471-1.485 6.878-6.315 5.393-10.786l-47.275-141.773c-1.195-3.55-4.523-5.82-8.089-5.82zM94.225 44.561c-0.888 0-1.792 0.137-2.697 0.443-4.472 1.485-6.878 6.315-5.393 10.786l129.792 389.342c2.321 6.963 13.875 6.963 16.179 0l129.775-389.342c1.502-4.471-0.921-9.301-5.393-10.786-4.505-1.502-9.301 0.921-10.769 5.376l-121.685 365.056-121.703-365.056c-1.229-3.55-4.557-5.82-8.106-5.82zM304.367 149.64h-170.667c-4.71 0-8.534 3.84-8.534 8.534s3.823 8.534 8.534 8.534h170.667c4.694 0 8.534-3.84 8.534-8.534s-3.84-8.534-8.534-8.534zM417.775 1.894c-3.567 0-6.878 2.27-8.089 5.837l-129.775 389.342c-1.485 4.471 0.921 9.302 5.376 10.803 4.522 1.502 9.318-0.938 10.803-5.393l129.775-389.342c1.502-4.471-0.921-9.301-5.393-10.786-0.904-0.29-1.809-0.461-2.697-0.461z" />
<glyph unicode="&#xee08;" glyph-name="Wizard" d="M90.811 20.139c-2.184 0-4.369 0.837-6.041 2.491l-30.174 30.191c-1.605 1.604-2.492 3.772-2.492 6.041s0.904 4.438 2.492 6.041l256.443 256.392c3.328 3.328 8.738 3.328 12.066 0l30.191-30.174c1.622-1.605 2.491-3.772 2.491-6.042s-0.904-4.438-2.491-6.042l-256.461-256.426c-1.656-1.639-3.84-2.474-6.025-2.474zM72.721 58.829l18.108-18.108 244.377 244.377-18.108 18.108-244.377-244.377zM294.469 238.848c-2.202 0-4.386 0.837-6.058 2.492l-15.070 15.087c-3.328 3.328-3.328 8.738 0 12.066s8.738 3.328 12.066 0l15.070-15.104c3.328-3.328 3.328-8.721 0-12.066-1.639-1.621-3.84-2.475-6.007-2.475zM386.799 292.182c-0.461 0-0.921 0.034-1.365 0.102-3.687 0.581-6.57 3.515-7.099 7.202l-5.905 41.113-40.192 6.673c-3.67 0.614-6.536 3.533-7.065 7.202-0.529 3.686 1.399 7.287 4.728 8.892l33.792 16.315-8.192 37.854c-0.819 3.704 0.938 7.475 4.233 9.285 3.328 1.809 7.441 1.229 10.137-1.45l29.031-29.048 36.608 18.637c3.294 1.672 7.322 1.041 9.933-1.57 2.594-2.611 3.226-6.622 1.57-9.916l-18.671-36.574 29.065-29.048c2.663-2.679 3.26-6.809 1.433-10.137-1.792-3.328-5.598-5.035-9.301-4.233l-37.769 8.329-17.305-34.918c-1.502-2.885-4.454-4.711-7.663-4.711zM361.575 359.714l19.832-3.26c3.67-0.615 6.502-3.533 7.065-7.202l2.867-20.122 8.106 16.316c1.775 3.515 5.649 5.376 9.506 4.557l15.736-3.482-12.766 12.766c-2.628 2.611-3.243 6.622-1.57 9.915l9.541 18.705-18.705-9.541c-3.328-1.673-7.305-1.041-9.933 1.57l-12.902 12.903 3.498-16.060c0.837-3.857-1.075-7.783-4.625-9.489l-15.65-7.577z" />
</font>
</defs>
</svg>
