<?xml version="1.0" encoding="utf-8"?>
<!-- Generator: Adobe Illustrator 15.0.0, SVG Export Plug-In . SVG Version: 6.00 Build 0)  -->
<!DOCTYPE svg PUBLIC "-//W3C//DTD SVG 1.1//EN" "http://www.w3.org/Graphics/SVG/1.1/DTD/svg11.dtd">
<svg version="1.1" id="Layer_1" xmlns="http://www.w3.org/2000/svg" xmlns:xlink="http://www.w3.org/1999/xlink" x="0px" y="0px"
	 width="832px" height="662px" viewBox="0 0 832 662" enable-background="new 0 0 832 662" xml:space="preserve">
<filter  id="filter-6" y="-94.1%" x="-55.0%" width="210.0%" height="288.1%" filterUnits="objectBoundingBox">
	<feGaussianBlur  in="SourceGraphic" stdDeviation="15"></feGaussianBlur>
</filter>
<filter  id="filter-3" y="-132.2%" x="-77.2%" width="254.5%" height="364.4%" filterUnits="objectBoundingBox">
	<feGaussianBlur  in="SourceGraphic" stdDeviation="15"></feGaussianBlur>
</filter>
<filter  id="filter-16" y="-94.1%" x="-55.0%" width="210.0%" height="288.1%" filterUnits="objectBoundingBox">
	<feGaussianBlur  in="SourceGraphic" stdDeviation="15"></feGaussianBlur>
</filter>
<filter  id="filter-13" y="-132.2%" x="-77.2%" width="254.5%" height="364.4%" filterUnits="objectBoundingBox">
	<feGaussianBlur  in="SourceGraphic" stdDeviation="15"></feGaussianBlur>
</filter>
<title>Group 5</title>
<desc>Created with Sketch.</desc>
<g id="Page-1_3_">
	<g id="Group-5" transform="translate(0.000000, 28.000000)">
		<g id="Group" transform="translate(0.000000, 178.000000)" opacity="0.3">
			<path id="Path-2" fill="#B1BAC9" d="M18.539,263.289c51.793,94.914,372.771-25.244,253.637,92.023
				c-70.938,69.827,124.098,86.229,287.266,49.488c110.861-24.962,193.34-77.311,224.492-141.514
				C859.827,106.873,655.563,12.465,626.606,6.129s-81.246-2.604-87.473,30.73c-6.229,33.335-168.961,102.906-257.473,22.485
				c-88.514-80.423-188.646-14.424-213.953,8.71C42.398,91.186-33.254,168.375,18.539,263.289z"/>
			<path id="Path-2_1_" fill="#72B62B" d="M18.539,260.289c51.793,94.914,372.771-25.244,253.637,92.023
				c-70.938,69.827,124.098,86.229,287.266,49.488c110.861-24.962,193.34-77.311,224.492-141.514
				C859.827,103.873,655.563,9.465,626.606,3.129s-81.246-2.604-87.473,30.73c-6.229,33.335-168.961,102.906-257.473,22.485
				c-88.514-80.423-188.646-14.424-213.953,8.71C42.398,88.186-33.254,165.375,18.539,260.289z"/>
		</g>
		
			<g transform="translate(206.000000, 114.500000) scale(-1, 1) translate(-206.000000, -114.500000) translate(122.000000, 0.000000)">
			<linearGradient id="Path-5_2_" gradientUnits="userSpaceOnUse" x1="179.5837" y1="699.366" x2="180.5375" y2="698.6326">
				<stop  offset="0" style="stop-color:#19FFF3"/>
				<stop  offset="1" style="stop-color:#00A4FF"/>
				<stop  offset="1" style="stop-color:#00A4FF"/>
			</linearGradient>
			
				<path id="Path-5" opacity="0.1" fill="none" stroke="url(#Path-5_2_)" stroke-width="4" stroke-linecap="round" stroke-linejoin="round" enable-background="new    " d="
				M50.738,31.929l66.905,35.673c3.897,2.079,5.374,6.925,3.296,10.821c-0.71,1.331-1.78,2.436-3.089,3.184l-83.816,47.915
				c-3.836,2.191-5.168,7.08-2.975,10.916c0.688,1.207,1.683,2.214,2.88,2.92l85.967,50.708"/>
			<linearGradient id="Path-7_2_" gradientUnits="userSpaceOnUse" x1="179.4998" y1="699.4998" x2="180.2068" y2="700.2067">
				<stop  offset="0" style="stop-color:#19FFF3"/>
				<stop  offset="1" style="stop-color:#FFFFFF;stop-opacity:0"/>
			</linearGradient>
			<path id="Path-7" fill="#E52A20" stroke="url(#Path-7_2_)" stroke-width="4" stroke-linecap="round" stroke-linejoin="round" d="
				M52.015,119.172l49.771-28.529"/>
			<g id="Item">
				<g id="Base" transform="translate(0.000000, 0.170006)">
					<g id="Fill-1" filter="url(#filter-3)">
						<path opacity="0.39" fill="#61E8FF" enable-background="new    " d="M5.14,10.813L0.157,25.921
							c-0.452,1.37,0.099,2.872,1.329,3.625l15.207,8.743c1.411,0.863,3.072,1.229,4.717,1.036l28.847-3.361
							c1.183-0.138,2.182-0.938,2.573-2.059l5.248-14.978c0.494-1.41-0.085-2.974-1.379-3.721L41.306,6.321
							c-1.373-0.792-2.967-1.123-4.54-0.942L7.738,8.701C6.534,8.839,5.521,9.663,5.14,10.813"/>
					</g>
					<path id="Fill-4" fill="#B1BAC9" d="M58.078,15.624l-5.249,14.979c-0.393,1.122-1.392,1.921-2.572,2.059l-28.848,3.362
						c-1.644,0.189-3.305-0.174-4.716-1.037L1.486,26.242c-0.835-0.51-1.354-1.364-1.464-2.288L0,21.611
						c0.083,0.974,0.612-1.426,1.486-0.891l15.207,8.74c1.411,0.863,3.072,1.229,4.716,1.037l28.848-3.359
						c1.183-0.14,2.182-0.938,2.572-2.061l5.249-12.542c0.049-0.14,0.107,0.411,0.175,1.652
						C58.213,14.926,58.155,15.404,58.078,15.624z"/>
					<g id="Group-3" transform="translate(0.000000, 0.306138)">
						<g id="Clip-2">
						</g>
						<defs>
							<filter id="Adobe_OpacityMaskFilter" filterUnits="userSpaceOnUse">
								<feColorMatrix  type="matrix" values="1 0 0 0 0  0 1 0 0 0  0 0 1 0 0  0 0 0 1 0"/>
							</filter>
						</defs>
						<mask maskUnits="userSpaceOnUse" id="mask-5">
							<g filter="url(#Adobe_OpacityMaskFilter)">
								<polygon id="path-4" fill="#FFFFFF" points="0,0.167 58.254,0.167 58.254,34.211 0,34.211 								"/>
							</g>
						</mask>
						<path id="Fill-1_1_" mask="url(#mask-5)" fill="#FFFFFF" d="M5.14,5.651L0.157,20.757c-0.452,1.37,0.099,2.872,1.329,3.625
							l15.207,8.743c1.411,0.863,3.072,1.229,4.717,1.037L50.257,30.8c1.183-0.138,2.182-0.937,2.573-2.059l5.248-14.979
							c0.494-1.41-0.085-2.972-1.379-3.719L41.306,1.157c-1.373-0.792-2.967-1.123-4.54-0.942L7.738,3.537
							C6.534,3.675,5.521,4.5,5.14,5.651"/>
					</g>
				</g>
			</g>
			<g id="Item_1_" transform="translate(86.000000, 172.000000)">
				<g id="Base_1_" transform="translate(0.000000, 0.238868)">
					<g id="Fill-1_2_" filter="url(#filter-6)">
						<path opacity="0.39" fill="#61E8FF" enable-background="new    " d="M7.222,15.193L0.22,36.42
							c-0.638,1.925,0.138,4.035,1.865,5.093l21.367,12.284c1.983,1.213,4.316,1.727,6.627,1.457l40.531-4.724
							c1.659-0.193,3.063-1.316,3.615-2.894l7.375-21.045c0.692-1.979-0.12-4.175-1.938-5.225L58.038,8.882
							c-1.929-1.114-4.165-1.578-6.379-1.325l-40.787,4.668C9.18,12.419,7.758,13.577,7.222,15.193"/>
					</g>
					<path id="Fill-4_1_" fill="#B1BAC9" d="M81.602,21.952l-7.374,21.045c-0.555,1.575-1.956,2.698-3.615,2.893l-40.532,4.725
						c-2.31,0.27-4.644-0.243-6.626-1.456L2.088,36.872c-1.173-0.718-1.901-1.917-2.057-3.216L0,30.365
						c0.116,1.365,0.859-2.003,2.088-1.252l21.367,12.282c1.982,1.215,4.316,1.728,6.626,1.456l40.532-4.723
						c1.659-0.194,3.063-1.317,3.615-2.893l7.374-17.622c0.067-0.196,0.149,0.576,0.246,2.32
						C81.793,20.973,81.711,21.644,81.602,21.952z"/>
					<g id="Group-3_1_" transform="translate(0.000000, 0.430141)">
						<g id="Clip-2_1_">
						</g>
						<defs>
							<filter id="Adobe_OpacityMaskFilter_1_" filterUnits="userSpaceOnUse">
								<feColorMatrix  type="matrix" values="1 0 0 0 0  0 1 0 0 0  0 0 1 0 0  0 0 0 1 0"/>
							</filter>
						</defs>
						<mask maskUnits="userSpaceOnUse" id="mask-8">
							<g filter="url(#Adobe_OpacityMaskFilter_1_)">
								<polygon id="path-7" fill="#FFFFFF" points="0,0.235 81.849,0.235 81.849,48.069 0,48.069 								"/>
							</g>
						</mask>
						<path id="Fill-1_3_" mask="url(#mask-8)" fill="#FFFFFF" d="M7.222,7.939L0.22,29.165c-0.638,1.928,0.138,4.035,1.865,5.096
							l21.367,12.282c1.983,1.213,4.316,1.728,6.627,1.457l40.531-4.724c1.659-0.193,3.063-1.316,3.615-2.893l7.375-21.047
							c0.692-1.979-0.12-4.175-1.938-5.225L58.038,1.627c-1.929-1.111-4.165-1.576-6.379-1.323L10.872,4.97
							C9.18,5.164,7.758,6.322,7.222,7.939"/>
					</g>
				</g>
			</g>
			<g id="Page-1" transform="translate(109.000000, 142.000000)">
				<g transform="translate(0.000000, 17.280000)">
					<g id="Clip-2_2_">
					</g>
					<defs>
						<filter id="Adobe_OpacityMaskFilter_2_" filterUnits="userSpaceOnUse">
							<feColorMatrix  type="matrix" values="1 0 0 0 0  0 1 0 0 0  0 0 1 0 0  0 0 0 1 0"/>
						</filter>
					</defs>
					<mask maskUnits="userSpaceOnUse" id="mask-10">
						<g filter="url(#Adobe_OpacityMaskFilter_2_)">
							<polygon id="path-9" fill="#FFFFFF" points="0.001,0 35.552,0 35.552,40.173 0.001,40.173 							"/>
						</g>
					</mask>
					<path id="Fill-1_4_" mask="url(#mask-10)" fill="#5EB130" d="M35.439,30.899c-0.031-0.132-0.066-0.261-0.11-0.39l-0.97-1.688
						L17.776,0L1.193,28.824l-0.97,1.688c-0.044,0.129-0.08,0.26-0.11,0.39c-0.072,0.306-0.112,0.614-0.112,0.931
						c0,4.607,7.958,8.343,17.775,8.343c9.815,0,17.773-3.733,17.773-8.343C35.552,31.516,35.511,31.205,35.439,30.899"/>
				</g>
				<path fill="#5EB130" d="M31.122,13.345c0,7.368-5.975,13.346-13.346,13.346c-7.37,0-13.346-5.978-13.346-13.346
					C4.43,5.975,10.406,0,17.776,0C25.147,0,31.122,5.975,31.122,13.345"/>
			</g>
		</g>
		<g transform="translate(633.000000, 326.000000)">
			<linearGradient id="Path-5_3_" gradientUnits="userSpaceOnUse" x1="-1567.5837" y1="373.366" x2="-1566.6299" y2="372.6326">
				<stop  offset="0" style="stop-color:#19FFF3"/>
				<stop  offset="1" style="stop-color:#00A4FF"/>
				<stop  offset="1" style="stop-color:#00A4FF"/>
			</linearGradient>
			
				<path id="Path-5_1_" opacity="0.1" fill="none" stroke="url(#Path-5_3_)" stroke-width="4" stroke-linecap="round" stroke-linejoin="round" enable-background="new    " d="
				M50.739,78.929l66.904,35.674c3.898,2.078,5.375,6.924,3.296,10.823c-0.709,1.33-1.78,2.433-3.089,3.181l-83.816,47.916
				c-3.836,2.192-5.168,7.079-2.975,10.915c0.688,1.207,1.683,2.214,2.881,2.92l85.967,50.708"/>
			<linearGradient id="Path-7_3_" gradientUnits="userSpaceOnUse" x1="-1567.4998" y1="372.4998" x2="-1566.4998" y2="373.4998">
				<stop  offset="0" style="stop-color:#19FFF3"/>
				<stop  offset="1" style="stop-color:#FFFFFF;stop-opacity:0"/>
			</linearGradient>
			<path id="Path-7_1_" fill="none" stroke="url(#Path-7_3_)" stroke-width="4" stroke-linecap="round" stroke-linejoin="round" d="
				M52.016,166.174l49.771-28.531"/>
			<g id="Item_2_" transform="translate(0.000000, 47.000000)">
				<g id="Base_2_" transform="translate(0.000000, 0.170006)">
					<g id="Fill-1_5_" filter="url(#filter-13)">
						<path opacity="0.39" fill="#61E8FF" enable-background="new    " d="M5.14,10.813L0.156,25.923
							c-0.452,1.37,0.101,2.872,1.329,3.625l15.207,8.743c1.412,0.861,3.072,1.229,4.717,1.035l28.849-3.36
							c1.181-0.14,2.18-0.938,2.571-2.061l5.248-14.978c0.495-1.41-0.085-2.974-1.378-3.721L41.307,6.321
							c-1.374-0.792-2.965-1.123-4.541-0.942L7.738,8.701C6.531,8.839,5.521,9.663,5.14,10.813"/>
					</g>
					<path id="Fill-4_2_" fill="#B1BAC9" d="M58.075,15.624l-5.248,14.979c-0.394,1.121-1.393,1.921-2.571,2.059l-28.85,3.361
						c-1.644,0.191-3.305-0.174-4.716-1.037L1.486,26.243c-0.835-0.511-1.354-1.362-1.464-2.288L0,21.612
						c0.08,0.975,0.609-1.426,1.483-0.892l15.207,8.743c1.411,0.861,3.072,1.229,4.716,1.036l28.85-3.361
						c1.181-0.138,2.18-0.938,2.571-2.059l5.248-12.544c0.05-0.14,0.107,0.411,0.177,1.653
						C58.213,14.926,58.155,15.404,58.075,15.624z"/>
					<g id="Group-3_2_" transform="translate(0.000000, 0.306138)">
						<g id="Clip-2_3_">
						</g>
						<defs>
							<filter id="Adobe_OpacityMaskFilter_3_" filterUnits="userSpaceOnUse" x="-0.001" y="0.167" width="58.252" height="34.045">
								<feColorMatrix  type="matrix" values="1 0 0 0 0  0 1 0 0 0  0 0 1 0 0  0 0 0 1 0"/>
							</filter>
						</defs>
						<mask maskUnits="userSpaceOnUse" x="-0.001" y="0.167" width="58.252" height="34.045" id="mask-15">
							<g filter="url(#Adobe_OpacityMaskFilter_3_)">
								<polygon id="path-14" fill="#FFFFFF" points="0,0.167 58.253,0.167 58.253,34.212 0,34.212 								"/>
							</g>
						</mask>
						<path id="Fill-1_6_" mask="url(#mask-15)" fill="#FFFFFF" d="M5.14,5.651L0.156,20.757c-0.452,1.37,0.101,2.872,1.329,3.625
							l15.207,8.743c1.412,0.863,3.072,1.229,4.717,1.037L50.256,30.8c1.181-0.138,2.18-0.937,2.571-2.059l5.248-14.979
							c0.495-1.41-0.085-2.972-1.378-3.719L41.307,1.158c-1.374-0.793-2.965-1.124-4.541-0.943L7.738,3.537
							C6.531,3.675,5.521,4.5,5.14,5.651"/>
					</g>
				</g>
			</g>
			<g id="Item_3_" transform="translate(86.000000, 219.000000)">
				<g id="Base_3_" transform="translate(0.000000, 0.238868)">
					<g id="Fill-1_7_" filter="url(#filter-16)">
						<path opacity="0.39" fill="#61E8FF" enable-background="new    " d="M7.223,15.194L0.22,36.42
							c-0.635,1.925,0.139,4.035,1.868,5.094l21.364,12.284c1.983,1.213,4.317,1.728,6.627,1.456l40.532-4.723
							c1.658-0.193,3.063-1.317,3.614-2.895l7.375-21.045c0.694-1.979-0.12-4.175-1.938-5.225L58.036,8.882
							c-1.93-1.112-4.166-1.578-6.38-1.325l-40.786,4.67C9.181,12.419,7.757,13.577,7.223,15.194"/>
					</g>
					<path id="Fill-4_3_" fill="#B1BAC9" d="M81.602,21.952l-7.374,21.045c-0.553,1.575-1.956,2.699-3.615,2.893l-40.533,4.724
						c-2.31,0.27-4.643-0.243-6.626-1.456L2.087,36.872c-1.174-0.718-1.902-1.917-2.058-3.216L0,30.365
						c0.114,1.367,0.857-2.003,2.087-1.252l21.365,12.284c1.983,1.213,4.316,1.726,6.626,1.457l40.532-4.726
						c1.659-0.191,3.063-1.314,3.615-2.893L81.6,17.614c0.069-0.196,0.15,0.577,0.246,2.322
						C81.791,20.973,81.71,21.646,81.602,21.952z"/>
					<g id="Group-3_3_" transform="translate(0.000000, 0.430141)">
						<g id="Clip-2_4_">
						</g>
						<defs>
							<filter id="Adobe_OpacityMaskFilter_4_" filterUnits="userSpaceOnUse" x="0" y="0.236" width="81.847" height="47.835">
								<feColorMatrix  type="matrix" values="1 0 0 0 0  0 1 0 0 0  0 0 1 0 0  0 0 0 1 0"/>
							</filter>
						</defs>
						<mask maskUnits="userSpaceOnUse" x="0" y="0.236" width="81.847" height="47.835" id="mask-18">
							<g filter="url(#Adobe_OpacityMaskFilter_4_)">
								<polygon id="path-17" fill="#FFFFFF" points="0,0.235 81.849,0.235 81.849,48.069 0,48.069 								"/>
							</g>
						</mask>
						<path id="Fill-1_8_" mask="url(#mask-18)" fill="#FFFFFF" d="M7.223,7.939L0.22,29.167c-0.635,1.926,0.139,4.034,1.868,5.094
							l21.364,12.284c1.983,1.213,4.317,1.726,6.627,1.457l40.532-4.726c1.658-0.191,3.063-1.314,3.614-2.893l7.375-21.044
							c0.694-1.981-0.12-4.178-1.938-5.227L58.036,1.629c-1.93-1.113-4.166-1.578-6.38-1.325L10.87,4.97
							C9.181,5.166,7.757,6.323,7.223,7.939"/>
					</g>
				</g>
			</g>
		</g>
		<g id="Group-2" transform="translate(206.000000, 87.000000)">
			<g id="Page-1_2_" transform="translate(65.000000, 0.000000)">
				<g id="Group-3_4_" transform="translate(0.000000, 171.436193)">
					<g id="Clip-2_5_">
					</g>
					<defs>
						<filter id="Adobe_OpacityMaskFilter_5_" filterUnits="userSpaceOnUse" x="0" y="0.29" width="215.608" height="124.483">
							<feColorMatrix  type="matrix" values="1 0 0 0 0  0 1 0 0 0  0 0 1 0 0  0 0 0 1 0"/>
						</filter>
					</defs>
					<mask maskUnits="userSpaceOnUse" x="0" y="0.29" width="215.608" height="124.483" id="mask-30">
						<g filter="url(#Adobe_OpacityMaskFilter_5_)">
							<polygon id="path-29" fill="#FFFFFF" points="0,0.29 215.609,0.29 215.609,124.772 0,124.772 							"/>
						</g>
					</mask>
					<path id="Fill-1_9_" mask="url(#mask-30)" fill="#336507" d="M215.609,39.467l-0.001-7.297l-6.42,1.379L154.033,1.706
						c-3.635-2.101-10.044-1.833-14.239,0.59L12.508,75.785L0,78.472v7.106l0.003-0.001c-0.031,1.367,0.771,2.678,2.449,3.646
						l59.118,34.133c3.636,2.102,10.044,1.834,14.242-0.59l136.319-78.703c2.27-1.311,3.442-2.992,3.472-4.596H215.609z"/>
				</g>
				<g id="Group-6" transform="translate(0.000000, 164.465684)">
					<g id="Clip-5">
					</g>
					<defs>
						
							<filter id="Adobe_OpacityMaskFilter_6_" filterUnits="userSpaceOnUse" x="-0.002" y="0.032" width="215.607" height="124.481">
							<feColorMatrix  type="matrix" values="1 0 0 0 0  0 1 0 0 0  0 0 1 0 0  0 0 0 1 0"/>
						</filter>
					</defs>
					<mask maskUnits="userSpaceOnUse" x="-0.002" y="0.032" width="215.607" height="124.481" id="mask-32">
						<g filter="url(#Adobe_OpacityMaskFilter_6_)">
							<polygon id="path-31" fill="#FFFFFF" points="0,0.031 215.609,0.031 215.609,124.513 0,124.513 							"/>
						</g>
					</mask>
					<path id="Fill-4_6_" mask="url(#mask-32)" fill="#FF0049" d="M61.573,123.097L2.452,88.964c-3.638-2.099-3.177-5.8,1.021-8.223
						l136.32-78.704c4.195-2.424,10.604-2.688,14.238-0.59l59.122,34.134c3.636,2.098,3.175,5.799-1.021,8.222L75.815,122.507
						C71.615,124.93,65.206,125.195,61.573,123.097"/>
				</g>
				<polygon id="Fill-7" fill="#D9F9DE" points="80.143,280.465 14.746,242.708 135.466,173.01 200.863,210.767 				"/>
				<path id="Fill-9_1_" fill="#39EAFD" d="M44.637,268.993c-3.195,1.844-8.028,2.045-10.796,0.447
					c-2.77-1.6-2.42-4.388,0.773-6.233c3.195-1.844,8.028-2.045,10.796-0.445C48.179,264.357,47.83,267.148,44.637,268.993"/>
				<path id="Fill-11_1_" fill="#FFFFFF" d="M43.94,268.591c-2.751,1.59-6.912,1.763-9.294,0.387
					c-2.382-1.375-2.084-3.777,0.668-5.366c2.75-1.588,6.912-1.76,9.294-0.385S46.691,267.003,43.94,268.591"/>
				<path id="Fill-13" fill="#39EAFD" d="M168.311,183.541l0.063-0.036c0.176-0.101,0.373-0.177,0.58-0.229
					c0.389-0.01,0.764,0.062,1.035,0.22l13.623,7.865c0.149,0.086,0.253,0.19,0.315,0.302c0.148-0.299,0.052-0.615-0.315-0.827
					l-13.623-7.863c-0.271-0.158-0.646-0.229-1.035-0.223c-0.207,0.055-0.404,0.129-0.58,0.229l-0.063,0.036
					c-0.485,0.278-0.65,0.67-0.476,0.984C167.919,183.836,168.075,183.677,168.311,183.541"/>
				<path id="Fill-15" fill="#FF4F98" d="M168.151,184.303l13.624,7.863c0.273,0.158,0.647,0.229,1.034,0.223
					c0.208-0.056,0.406-0.129,0.579-0.229l0.063-0.036c0.233-0.135,0.394-0.295,0.478-0.46c-0.063-0.113-0.166-0.217-0.315-0.303
					l-13.623-7.865c-0.271-0.158-0.646-0.229-1.035-0.221c-0.207,0.053-0.404,0.129-0.579,0.229l-0.063,0.036
					c-0.233,0.135-0.393,0.296-0.478,0.461C167.898,184.114,168.001,184.217,168.151,184.303"/>
				<path id="Fill-17" fill="#39EAFD" d="M179.168,185.159c0.17-0.099,0.361-0.173,0.563-0.225c0.378-0.008,0.741,0.063,1.01,0.218
					c0.146,0.084,0.247,0.184,0.311,0.292c0.15-0.296,0.056-0.607-0.311-0.817c-0.269-0.153-0.632-0.227-1.01-0.218
					c-0.202,0.052-0.396,0.126-0.563,0.227c-0.481,0.276-0.646,0.659-0.468,0.974C178.782,185.446,178.94,185.291,179.168,185.159"
					/>
				<path id="Fill-19" fill="#FF4F98" d="M179.011,185.899c0.269,0.154,0.632,0.225,1.01,0.217c0.202-0.052,0.396-0.126,0.564-0.224
					c0.229-0.132,0.385-0.288,0.467-0.448c-0.063-0.109-0.164-0.209-0.311-0.292c-0.269-0.155-0.633-0.229-1.011-0.218
					c-0.201,0.052-0.395,0.126-0.563,0.225c-0.229,0.132-0.385,0.288-0.468,0.448C178.764,185.715,178.865,185.815,179.011,185.899"
					/>
				<path id="Fill-21" fill="#39EAFD" d="M161.89,179.798c0.377-0.218,0.814-0.373,1.271-0.465c0.78-0.059,1.555,0.065,2.104,0.383
					c0.355,0.207,0.571,0.469,0.649,0.747c0.137-0.47-0.075-0.938-0.649-1.271c-0.551-0.317-1.323-0.441-2.104-0.384
					c-0.456,0.093-0.896,0.248-1.271,0.466c-0.771,0.441-1.089,1.035-0.938,1.558C161.057,180.463,161.37,180.096,161.89,179.798"/>
				<path id="Fill-23" fill="#FF4F98" d="M161.604,181.577c0.551,0.318,1.323,0.441,2.103,0.383
					c0.456-0.092,0.896-0.247,1.272-0.465c0.519-0.299,0.834-0.665,0.938-1.032c-0.078-0.278-0.294-0.541-0.649-0.747
					c-0.552-0.315-1.323-0.439-2.104-0.384c-0.455,0.093-0.896,0.248-1.271,0.466c-0.52,0.301-0.833,0.665-0.938,1.032
					C161.031,181.11,161.244,181.371,161.604,181.577"/>
				<g id="Group-7" transform="translate(54.000000, 0.000000)">
					<g id="Group-27" transform="translate(0.369973, 0.658713)">
						<g id="Clip-26">
						</g>
						<defs>
							
								<filter id="Adobe_OpacityMaskFilter_7_" filterUnits="userSpaceOnUse" x="0.329" y="0.038" width="106.209" height="255.148">
								<feColorMatrix  type="matrix" values="1 0 0 0 0  0 1 0 0 0  0 0 1 0 0  0 0 0 1 0"/>
							</filter>
						</defs>
						<mask maskUnits="userSpaceOnUse" x="0.329" y="0.038" width="106.209" height="255.148" id="mask-34">
							<g filter="url(#Adobe_OpacityMaskFilter_7_)">
								<polygon id="path-33" fill="#FFFFFF" points="0.329,0.038 106.537,0.038 106.537,255.187 0.329,255.187 								"/>
							</g>
						</mask>
						<polygon id="Fill-25" mask="url(#mask-34)" fill="#520D9C" points="103.656,8.781 106.537,1.707 103.656,0.038 0.329,59.695 
							0.329,253.518 3.21,255.187 4.99,250.827 103.656,193.863 						"/>
					</g>
					<polygon id="Fill-28" fill="#FFDBDE" points="106.907,196.19 3.58,255.845 3.58,62.021 106.907,2.366 					"/>
					<polygon id="Fill-30" fill="#520D9C" points="96.847,77.877 13.645,125.914 13.645,120.528 96.847,72.49 					"/>
					<polygon id="Fill-32" fill="#520D9C" points="96.847,89.17 13.645,137.207 13.645,131.821 96.847,83.783 					"/>
					<polygon id="Fill-34" fill="#520D9C" points="96.847,138.417 55.243,162.435 55.243,157.049 96.847,133.03 					"/>
					<polygon id="Fill-36" fill="#520D9C" points="96.847,149.58 55.243,173.597 55.243,168.211 96.847,144.192 					"/>
					<polygon id="Fill-38" fill="#520D9C" points="96.847,66.584 13.645,114.621 13.645,109.234 96.847,61.198 					"/>
					<polygon id="Fill-40" fill="#520D9C" points="96.847,55.291 13.645,103.328 13.645,97.941 96.847,49.904 					"/>
					<path id="Stroke-42" fill="none" stroke="#0D0735" d="M62.993,183.79c0,0,2.837-7.688,7.377-7.096
						c4.539,0.595-8.155,14.734-4.821,15.362c3.334,0.63,6.736-7.249,6.736-7.249s-2.128,5.678,0.779,3.549
						c2.908-2.13,3.404-6.927,3.404-6.927s-1.488,6.222,0.923,3.786c2.412-2.432,2.908-4.608,7.164-5.271s4.539-1.959,4.539-1.959"
						/>
					<path id="Fill-44" fill="#FF4F98" d="M194.416,117.3c-0.927-1.604-2.388-2.617-3.776-2.789l-3.091,1.782
						c-0.063,0.148-0.114,0.306-0.158,0.463c1.239,0.321,2.479,1.278,3.297,2.697c0.819,1.419,1.028,2.971,0.688,4.204
						c0.16,0.041,0.32,0.074,0.479,0.094l3.091-1.781C195.49,120.677,195.343,118.903,194.416,117.3"/>
					<path id="Fill-46" fill="#0D0735" d="M202.44,109.584l-1.917,1.107l-2.401,1.386c0.863,0.106,1.771,0.737,2.346,1.731
						c0.572,0.994,0.667,2.094,0.327,2.895l2.399-1.386l1.917-1.107c0.339-0.8,0.246-1.897-0.328-2.895
						C204.209,110.321,203.302,109.69,202.44,109.584"/>
					<path id="Fill-48" fill="#39EAFD" d="M186.908,116.662l-3.091,1.784l-67.619,39.04c1.393,0.172,2.854,1.188,3.778,2.791
						s1.074,3.377,0.527,4.668l67.619-39.041l3.092-1.784c0.063-0.146,0.111-0.304,0.156-0.464c0.343-1.232,0.135-2.783-0.688-4.203
						c-0.819-1.42-2.059-2.375-3.297-2.696C187.231,116.715,187.071,116.681,186.908,116.662"/>
					<path id="Fill-50" fill="#FF4F98" d="M116.198,157.486l-3.091,1.784l-14.217,8.208c1.392,0.172,2.853,1.188,3.778,2.791
						c0.925,1.604,1.073,3.377,0.526,4.667l14.217-8.208l3.092-1.783c0.547-1.291,0.396-3.064-0.528-4.668
						C119.052,158.675,117.591,157.658,116.198,157.486"/>
					<path id="Fill-52" fill="#39EAFD" d="M197.601,110.489l-3.091,1.785l-3.87,2.232c1.391,0.174,2.852,1.188,3.776,2.791
						c0.926,1.604,1.074,3.379,0.527,4.668l3.871-2.233l3.091-1.784c0.546-1.29,0.396-3.063-0.527-4.668
						C200.451,111.677,198.99,110.662,197.601,110.489"/>
					<path id="Fill-54" fill="#0D0735" d="M98.894,167.478l-3.403,3.493l-6.384,6.554l-0.085,0.087
						c-0.108,0.16-0.128,0.373-0.025,0.552c0.104,0.182,0.3,0.271,0.491,0.255l0.118-0.028l8.867-2.252l4.727-1.2
						c0.547-1.29,0.397-3.064-0.526-4.667C101.745,168.667,100.282,167.65,98.894,167.478"/>
				</g>
				<g id="check" transform="translate(42.000000, 173.000000)">
					<path id="Fill-6_1_" fill="#5AB700" d="M6.099,49.641l-0.01,0.012l0.103,0.051c0.011,0.012,0.031,0.021,0.053,0.031
						l3.336,1.912l0.664,0.385c3.501,1.839,8.263,1.464,13.497-1.56c10.755-6.203,19.474-21.248,19.474-33.582
						c0-6.13-2.15-10.442-5.643-12.471c-0.074-0.053-0.167-0.094-0.251-0.145l-3.429-1.977C30.361,0.2,25.435,0.472,19.981,3.62
						C9.227,9.835,0.509,24.871,0.509,37.215C0.509,43.314,2.639,47.604,6.099,49.641"/>
					<path id="Fill-8" fill="#B4EE73" d="M8.837,22.353c-0.059,0.111-0.112,0.227-0.169,0.34
						c-2.747,5.438-4.396,11.313-4.396,16.681c0,12.343,8.719,17.313,19.473,11.104c10.757-6.21,19.478-21.248,19.478-33.59
						c0-12.343-8.722-17.313-19.479-11.103c-3.639,2.103-7.046,5.213-9.96,8.893"/>
					<path id="Fill-32_1_" fill="#FFFFFF" d="M22.497,38.007c-0.569,0.33-1.143,0.409-1.577,0.16l-5.937-3.383
						c-0.873-0.496-0.873-2.12,0-3.624c0.871-1.503,2.286-2.32,3.157-1.822l4.354,2.482l8.066-13.911
						c0.872-1.504,2.285-2.32,3.157-1.823c0.871,0.498,0.871,2.118,0,3.624l-9.646,16.637C23.642,37.096,23.07,37.677,22.497,38.007
						"/>
				</g>
				<path fill="#D9F9DE" d="M-444.5-64.5c-6.449,0-6.449,10,0,10S-438.051-64.5-444.5-64.5z"/>
			</g>
		</g>
	</g>
</g>
</svg>
